<svg xmlns="http://www.w3.org/2000/svg" width="54.345" height="56.259" viewBox="0 0 54.345 56.259">
  <g id="Group_525" data-name="Group 525" transform="translate(-44.147 -144.52)" opacity="0.44">
    <path id="Path_718" data-name="Path 718" d="M98.37,158.99c-1.15-7.62-6.23-14.39-14.57-14.47-3.82-.04-8.67,2.65-11.64,4.88-3.07,2.3-4.68,5.63-6.11,9.1a51.147,51.147,0,0,1-3.66,7.65c-1.16,1.86-2.46,3.71-2.89,5.9a6.848,6.848,0,0,0,.81,4.91c-1.43,1.54-2.84,3.11-4.31,4.61a8.672,8.672,0,0,1-3.59,2.64,16.813,16.813,0,0,1-3.14.49c-1.96.28-3.77.86-4.66,2.77-.98,2.09-.33,3.99,1.26,5.55a4.953,4.953,0,0,0,4.84,1.38,6.383,6.383,0,0,0,1.92,4.8c1.68,1.8,3.53,1.97,5.72.97a5.449,5.449,0,0,0,3.5-4.88c.05-.85-.15-1.82-.14-2.66a6.259,6.259,0,0,1,1.79-4.41c1.37-1.63,2.9-3.16,4.35-4.73a6.249,6.249,0,0,0,5.29.11,30.4,30.4,0,0,0,4.45-2.74,45.269,45.269,0,0,1,7.46-3.58C91.7,174.47,99.57,166.89,98.37,158.99Zm-38.2,32.92c-.13,1.13.41,2.25.29,3.37a4.492,4.492,0,0,1-3.44,3.92c-4.82,1.02-4.13-3.43-5.1-5.8a.726.726,0,0,0-.86-.49c-4.69.86-7.68-4.48-2.57-6.7,1.45-.63,3.35-.11,4.88-.71,3.08-1.2,5.55-4.9,7.76-7.37a22.449,22.449,0,0,0,3.6,3.4.588.588,0,0,0,.08.04c.02.02.03.05.06.07a19.845,19.845,0,0,0,1.7,1.17C64.09,185.36,60.58,188.27,60.17,191.91Zm36.62-28.72a22.335,22.335,0,0,1-9.41,11.47c-3.42,1.88-7.21,2.83-10.49,4.99a24.322,24.322,0,0,1-3.7,2.35c-2.96,1.25-5.21.25-7.57-1.53a14.869,14.869,0,0,1-4.25-4.48c-1.45-2.92.08-5.73,1.64-8.24a77.523,77.523,0,0,0,4.91-10.13c3.89-8.8,15.38-15.31,24.01-8.65C95.5,151.7,98.14,158.74,96.79,163.19Z" fill="#333"/>
    <path id="Path_719" data-name="Path 719" d="M74.78,153.54a.7.7,0,0,0,0,1.4A.7.7,0,0,0,74.78,153.54Z" fill="#333"/>
    <path id="Path_720" data-name="Path 720" d="M76.82,159.85a.7.7,0,0,0,0,1.4A.7.7,0,0,0,76.82,159.85Z" fill="#333"/>
    <path id="Path_721" data-name="Path 721" d="M84.49,161.46c-.03-.9-1.43-.9-1.4,0v.13c.03.9,1.43.9,1.4,0Z" fill="#333"/>
    <path id="Path_722" data-name="Path 722" d="M80.75,153.05a.7.7,0,0,0,0,1.4A.7.7,0,0,0,80.75,153.05Z" fill="#333"/>
    <path id="Path_723" data-name="Path 723" d="M84.34,149.47a.7.7,0,0,0,0-1.4A.7.7,0,0,0,84.34,149.47Z" fill="#333"/>
    <path id="Path_724" data-name="Path 724" d="M87.68,157.24c-.65-.62-1.65.37-.99.99a.435.435,0,0,0,.07.06c.65.62,1.65-.37.99-.99A.436.436,0,0,1,87.68,157.24Z" fill="#333"/>
    <path id="Path_725" data-name="Path 725" d="M89.28,152.35a.435.435,0,0,0-.06.07c-.62.65.37,1.65.99.99a.435.435,0,0,0,.06-.07C90.89,152.68,89.9,151.69,89.28,152.35Z" fill="#333"/>
    <path id="Path_726" data-name="Path 726" d="M92.54,160.04a.7.7,0,0,0,0-1.4A.7.7,0,0,0,92.54,160.04Z" fill="#333"/>
    <path id="Path_727" data-name="Path 727" d="M85.05,166.76a.7.7,0,0,0,0,1.4A.7.7,0,0,0,85.05,166.76Z" fill="#333"/>
    <path id="Path_728" data-name="Path 728" d="M90.91,165.15v.13c.03.9,1.43.9,1.4,0v-.13A.7.7,0,0,0,90.91,165.15Z" fill="#333"/>
    <path id="Path_729" data-name="Path 729" d="M63.39,170.66a8,8,0,0,0-.64,4.68c.14.89,1.49.51,1.35-.37a6.276,6.276,0,0,1,.5-3.6C64.97,170.56,63.76,169.85,63.39,170.66Z" fill="#333"/>
    <path id="Path_730" data-name="Path 730" d="M65.19,167.24a.7.7,0,0,0,0,1.4A.7.7,0,0,0,65.19,167.24Z" fill="#333"/>
  </g>
</svg>
