<svg xmlns="http://www.w3.org/2000/svg" width="164" height="172.506" viewBox="0 0 164 172.506">
  <g id="Group_555" data-name="Group 555" transform="translate(-1033 -676.494)">
    <g id="Page-1" transform="translate(1087.494 676.494)">
      <g id="_038---Chairs-and-Table" data-name="038---Chairs-and-Table" transform="translate(0 0)">
        <path id="Shape" d="M31.887,46.861a10.1,10.1,0,0,0,6.073-8.353h4.173a3.209,3.209,0,0,0,0-6.418H28.838V24.744a4.564,4.564,0,0,0,6.418-.906,4.584,4.584,0,0,0,7.335,0,4.584,4.584,0,0,0,8.252-2.751C50.843,9.466,40.574.009,27.94,0h-.032C15.275.007,5,9.465,5,21.088a4.584,4.584,0,0,0,8.252,2.751,4.584,4.584,0,0,0,7.335,0A4.564,4.564,0,0,0,27,24.747V32.09H13.71a3.209,3.209,0,1,0,0,6.418h4.173a10.1,10.1,0,0,0,6.073,8.353,8.257,8.257,0,0,0-4.286,7.233.917.917,0,0,0,.917.917h14.67a.917.917,0,0,0,.917-.917,8.257,8.257,0,0,0-4.286-7.233Zm-.3-23.023a2.751,2.751,0,0,1-2.751-2.751V3.332c2.065,2.679,5.5,8.518,5.5,17.756A2.751,2.751,0,0,1,31.589,23.838Zm7.335,0a2.751,2.751,0,0,1-2.751-2.751A31.429,31.429,0,0,0,31.7,4.2c4.167,2.925,9.974,8.5,9.974,16.887A2.751,2.751,0,0,1,38.924,23.838Zm10.085-2.751a2.751,2.751,0,1,1-5.5,0c0-9.754-6.9-15.9-11.412-18.874C41.731,3.988,49.009,11.775,49.009,21.088ZM9.584,23.838a2.751,2.751,0,0,1-2.751-2.751c0-9.313,7.278-17.1,16.913-18.874-4.515,2.976-11.412,9.12-11.412,18.874a2.751,2.751,0,0,1-2.751,2.751Zm7.335,0a2.751,2.751,0,0,1-2.751-2.751c0-8.362,5.8-13.943,9.966-16.876A31.448,31.448,0,0,0,19.67,21.088a2.751,2.751,0,0,1-2.751,2.751Zm7.335,0A2.751,2.751,0,0,1,21.5,21.088c0-9.238,3.436-15.077,5.5-17.756V21.088A2.751,2.751,0,0,1,24.254,23.838ZM12.335,35.3a1.375,1.375,0,0,1,1.375-1.375H42.133a1.375,1.375,0,1,1,0,2.751H13.71A1.375,1.375,0,0,1,12.335,35.3Zm7.389,3.209h16.4a8.252,8.252,0,0,1-16.4,0Zm1.845,14.67a6.418,6.418,0,0,1,12.706,0Z" transform="translate(-0.416 0)" fill="#855c00"/>
        <path id="Shape-2" data-name="Shape" d="M16.5,46.42a2.751,2.751,0,0,0-2.751-2.751H5.5V31.751a2.751,2.751,0,0,0-5.5,0V46.42a2.745,2.745,0,0,0,2.408,2.716l-2.36,7.08A.918.918,0,0,0,1.79,56.8l2.538-7.625h7.848L14.717,56.8a.918.918,0,0,0,1.742-.579l-2.36-7.08a2.745,2.745,0,0,0,2.4-2.716ZM1.834,31.751a.917.917,0,0,1,1.834,0V43.67H1.834ZM13.753,47.337h-11a.917.917,0,0,1-.917-.917V45.5H13.753a.917.917,0,1,1,0,1.834Z" transform="translate(0 -2.411)" fill="#855c00"/>
        <path id="Shape-3" data-name="Shape" d="M55.753,29A2.751,2.751,0,0,0,53,31.751V43.67H44.75a2.743,2.743,0,0,0-.343,5.466l-2.36,7.08a.918.918,0,0,0,1.742.579l2.538-7.625h7.848L56.717,56.8a.918.918,0,1,0,1.742-.579l-2.36-7.08a2.745,2.745,0,0,0,2.4-2.716V31.751A2.751,2.751,0,0,0,55.753,29Zm-.917,2.751a.917.917,0,1,1,1.834,0V43.67H54.836Zm1.834,14.67a.917.917,0,0,1-.917.917h-11a.917.917,0,1,1,0-1.834H56.669Z" transform="translate(-3.492 -2.411)" fill="#855c00"/>
      </g>
    </g>
    <text id="Finibus_Bonorum_et_Malorum" data-name="Finibus Bonorum
et Malorum" transform="translate(1115 762)" fill="#232323" font-size="20" font-family="Playfair Display" font-weight="700"><tspan x="-81.17" y="0">Finibus Bonorum</tspan><tspan x="-53.65" y="27">et Malorum</tspan></text>
    <rect id="Rectangle_66" data-name="Rectangle 66" width="140" height="33" rx="16.5" transform="translate(1046 816)" fill="#855c00"/>
    <text id="Read_More" data-name="Read More" transform="translate(1115 837)" fill="#fff" font-size="13" font-family="Poppins-Medium, Poppins" font-weight="500"><tspan x="-35.009" y="0">Read More</tspan></text>
  </g>
</svg>
