<svg xmlns="http://www.w3.org/2000/svg" width="164" height="183" viewBox="0 0 164 183">
  <g id="Group_552" data-name="Group 552" transform="translate(-457 -337)">
    <g id="dining" transform="translate(506 336)">
      <path id="Path_686" data-name="Path 686" d="M42.1,44.589A2.21,2.21,0,0,0,43.24,45a16.032,16.032,0,0,1,1.1-1.293C45.191,42.785,46,41.919,46,41s-.809-1.785-1.664-2.7a10.658,10.658,0,0,1-1.545-1.934,11.4,11.4,0,0,1-.9-2.4,11.986,11.986,0,0,0-.639-1.8l-2.778,2.778a6.961,6.961,0,0,1,2.769,9.211c.323.155.612.306.857.437Z" fill="#855c00"/>
      <path id="Path_687" data-name="Path 687" d="M50,45.04a9.8,9.8,0,0,0-4.162,1.312,4.551,4.551,0,0,1-4.678,0,10.52,10.52,0,0,0-10.324,0A4,4,0,0,1,28.5,47a3.62,3.62,0,0,1-1.741-.344L25.27,48.144A5.908,5.908,0,0,0,28.5,49a5.939,5.939,0,0,0,3.278-.883,8.532,8.532,0,0,1,8.441,0,6.533,6.533,0,0,0,6.56,0A7.961,7.961,0,0,1,50,47.054Z" fill="#855c00"/>
      <path id="Path_688" data-name="Path 688" d="M28.415,45H28.5a2.122,2.122,0,0,0,1.4-.411A11.9,11.9,0,0,1,36,43a12.311,12.311,0,0,1,3.357.444,4.969,4.969,0,0,0-2.364-7.019Z" fill="#855c00"/>
      <path id="Path_689" data-name="Path 689" d="M52,46.808V53H51a2.124,2.124,0,0,0-1.4.411,12.52,12.52,0,0,1-12.209,0,2.576,2.576,0,0,0-2.79,0A11.9,11.9,0,0,1,28.5,55a11.928,11.928,0,0,1-6.1-1.588A2.119,2.119,0,0,0,21,53h-.586l-3.1,3.1A113.385,113.385,0,0,0,32,57c17.968,0,29-3.494,29-6,0-.816-1.925-2.688-9-4.192Z" fill="#855c00"/>
      <path id="Path_690" data-name="Path 690" d="M7,25a3.761,3.761,0,0,0,.611-.061c.505-.6,1.031-1.179,1.59-1.738s1.141-1.084,1.737-1.588A3.671,3.671,0,0,0,11,21a4,4,0,1,0-4,4Z" fill="#855c00"/>
      <path id="Path_691" data-name="Path 691" d="M39.276,49.883a6.531,6.531,0,0,0-6.557,0A7.889,7.889,0,0,1,28.5,51a7.9,7.9,0,0,1-4.22-1.117c-.166-.089-.328-.174-.492-.256L22.26,51.154a6.21,6.21,0,0,1,1.077.492A9.848,9.848,0,0,0,28.5,53a9.839,9.839,0,0,0,5.161-1.353,4.547,4.547,0,0,1,4.674,0,10.524,10.524,0,0,0,10.326,0A4.954,4.954,0,0,1,50,51.085V49.063a6.124,6.124,0,0,0-2.28.819,8.534,8.534,0,0,1-8.444,0Z" fill="#855c00"/>
      <path id="Path_692" data-name="Path 692" d="M15.552,57.862,13.684,59.73A113.479,113.479,0,0,0,32,61c17.968,0,29-3.494,29-6v-.97C56.316,57.3,44.1,59,32,59A112.124,112.124,0,0,1,15.552,57.862Z" fill="#855c00"/>
      <path id="Path_693" data-name="Path 693" d="M28.951,17.046h-.089a25.635,25.635,0,0,0-18.247,7.569,25.962,25.962,0,0,0-.6,35.957L46.572,24.013a25.89,25.89,0,0,0-17.621-6.967ZM7,42.88l-1.556.094L5,42.952c0-.718.028-1.379.086-2.037l1.992.174c-.053.6-.079,1.2-.079,1.791ZM7.331,39.2l-1.969-.355c.124-.686.278-1.37.46-2.035l1.93.525c-.166.609-.308,1.237-.421,1.865Zm1-3.691-1.879-.684c.237-.653.505-1.3.793-1.926l1.816.839c-.265.575-.511,1.17-.73,1.771Zm3.648,20.271-1.414-1.414,1.414-1.414,1.414,1.414Zm2.83-2.829L13.4,51.535l1.414-1.414,1.414,1.414Zm2.828-2.828-1.414-1.414,1.414-1.414,1.414,1.414ZM37.6,22.85a22.032,22.032,0,0,0-15.3-.8l-.6-1.907a24.034,24.034,0,0,1,16.7.874Zm1.913.943.971-1.748c.621.345,1.237.724,1.832,1.127l-1.123,1.655c-.547-.37-1.111-.718-1.68-1.034Z" fill="#855c00"/>
      <path id="Path_694" data-name="Path 694" d="M57.225,24.9C54.307,27.258,51,29.937,51,41h2c0-10.11,2.788-12.368,5.483-14.551C60.7,24.65,63,22.791,63,17a5,5,0,1,0-5,5h1V20H58a3,3,0,1,1,3-3C61,21.837,59.334,23.186,57.225,24.9Z" fill="#855c00"/>
      <path id="Path_695" data-name="Path 695" d="M48,32h2c0-11.9-2.891-15.613-5.213-18.6C43.229,11.4,42,9.813,42,6a3,3,0,1,1,3,3H44v2h1a5,5,0,1,0-5-5c0,4.5,1.558,6.5,3.208,8.626C45.454,17.516,48,20.792,48,32Z" fill="#855c00"/>
    </g>
    <text id="Finibus_Bonorum_et_Malorum" data-name="Finibus Bonorum
et Malorum" transform="translate(539 431)" fill="#232323" font-size="20" font-family="Playfair Display" font-weight="700"><tspan x="-81.17" y="0">Finibus Bonorum</tspan><tspan x="-53.65" y="27">et Malorum</tspan></text>
    <rect id="Rectangle_63" data-name="Rectangle 63" width="140" height="33" rx="16.5" transform="translate(469 487)" fill="#855c00"/>
    <text id="Order_now" data-name="Order now" transform="translate(539 508)" fill="#fff" font-size="13" font-family="Poppins-Medium, Poppins" font-weight="500"><tspan x="-33.924" y="0">Order now</tspan></text>
  </g>
</svg>
