<svg xmlns="http://www.w3.org/2000/svg" width="89.22" height="83.181" viewBox="0 0 89.22 83.181">
  <g id="Group_548" data-name="Group 548" transform="translate(-22.16 -227.229)" opacity="0.44">
    <path id="Path_836" data-name="Path 836" d="M41.17,259.17a4.885,4.885,0,0,0-.33-1.91,3.647,3.647,0,0,0-1.06-1.46,4.757,4.757,0,0,0-1.81-.92,4.077,4.077,0,0,0-3.61.48,6.328,6.328,0,0,0-2.23,3.63,9.02,9.02,0,0,0-.35,2.26,5.075,5.075,0,0,0,.32,1.91,3.794,3.794,0,0,0,1.05,1.46,4.7,4.7,0,0,0,1.83.92,4.061,4.061,0,0,0,3.6-.48,6.337,6.337,0,0,0,2.24-3.63A9.02,9.02,0,0,0,41.17,259.17Zm-2.2.24a8.851,8.851,0,0,1-.26,1.43,4.934,4.934,0,0,1-1.35,2.54,2.144,2.144,0,0,1-2.83-.18,2.135,2.135,0,0,1-.49-.93,4.03,4.03,0,0,1-.09-1.23,6.759,6.759,0,0,1,.27-1.46,5,5,0,0,1,1.34-2.52,1.97,1.97,0,0,1,1.9-.39,1.905,1.905,0,0,1,.96.56,2.195,2.195,0,0,1,.48.95A3.784,3.784,0,0,1,38.97,259.41Zm26.69,3.46,1.9.53-2.89,10.32-1.46-.41-2.33-6.5-.35-1.84-.07-.02-.22,1.68-1.5,5.34-1.9-.53,2.89-10.32,1.46.41,2.35,6.55.34,1.78.07.02.21-1.63Zm-12.77.92,3.7,1.04-.5,1.79-3.7-1.04-.7,2.5,4.14,1.16-.5,1.79-6.15-1.72,2.87-10.25,6.07,1.7-.5,1.79-4.07-1.14ZM50,260.11a3.018,3.018,0,0,0-.71-1.32,3.984,3.984,0,0,0-1.24-.88,9.325,9.325,0,0,0-1.5-.55c-.49-.14-.98-.25-1.49-.35s-.97-.16-1.41-.2l-2.84,10.14,2.01.56.99-3.53c.05.02.12.05.23.1s.22.08.34.12.23.07.34.1a2.347,2.347,0,0,1,.23.07,5.758,5.758,0,0,0,1.52.22,3.647,3.647,0,0,0,1.44-.26,3.274,3.274,0,0,0,1.2-.84,3.8,3.8,0,0,0,.8-1.54A3.568,3.568,0,0,0,50,260.11Zm-2.2,1.22a2.086,2.086,0,0,1-.44.87,1.436,1.436,0,0,1-.64.41,1.966,1.966,0,0,1-.77.08,3.643,3.643,0,0,1-.8-.15c-.04-.01-.1-.03-.18-.05a2.411,2.411,0,0,1-.25-.08q-.135-.045-.24-.09a1.439,1.439,0,0,1-.17-.08l.93-3.32a3.5,3.5,0,0,1,.44.07c.18.03.37.08.56.13a4.588,4.588,0,0,1,.73.28,2,2,0,0,1,.58.45,1.452,1.452,0,0,1,.32.63A1.972,1.972,0,0,1,47.8,261.33Zm38.3,24.88a4.855,4.855,0,0,0-1.52-1.2,3.694,3.694,0,0,0-1.77-.38,4.689,4.689,0,0,0-1.96.53,4.035,4.035,0,0,0-2.36,2.77,6.333,6.333,0,0,0,.76,4.19,8.531,8.531,0,0,0,1.25,1.91,4.855,4.855,0,0,0,1.52,1.2,3.781,3.781,0,0,0,1.76.39,4.622,4.622,0,0,0,1.97-.53,4.089,4.089,0,0,0,2.36-2.76,6.3,6.3,0,0,0-.76-4.2A8.607,8.607,0,0,0,86.1,286.21Zm-.01,5.67a2.147,2.147,0,0,1-2.22,1.76,2.059,2.059,0,0,1-.98-.36,3.771,3.771,0,0,1-.89-.86,7.648,7.648,0,0,1-.78-1.27,5.052,5.052,0,0,1-.69-2.77,1.958,1.958,0,0,1,1.15-1.56,2.031,2.031,0,0,1,1.09-.23,2.106,2.106,0,0,1,.99.39,4.245,4.245,0,0,1,.88.87,7.03,7.03,0,0,1,.75,1.24A5.016,5.016,0,0,1,86.09,291.88Zm17.08-7.7.82,1.66-5.72,2.83-4.71-9.54,5.66-2.79.82,1.66-3.79,1.87,1.1,2.22,3.45-1.7.82,1.66-3.45,1.7,1.15,2.33ZM73.69,298.42l1.13,1.33a3.251,3.251,0,0,1-.89.99,7.327,7.327,0,0,1-1.32.82,5.686,5.686,0,0,1-1.76.54,3.874,3.874,0,0,1-1.78-.19,4.567,4.567,0,0,1-1.69-1.08,7.517,7.517,0,0,1-1.48-2.13,6.921,6.921,0,0,1-.77-2.54,4.823,4.823,0,0,1,.25-2.02,4.092,4.092,0,0,1,.97-1.51,5.658,5.658,0,0,1,1.4-1.01,7.613,7.613,0,0,1,1.44-.57,5.824,5.824,0,0,1,1.06-.2l.41,1.76a2.773,2.773,0,0,0-.85.15,7.191,7.191,0,0,0-1.08.45,2.532,2.532,0,0,0-1.42,1.7,4.29,4.29,0,0,0,.54,2.84,5.619,5.619,0,0,0,.83,1.26,3.2,3.2,0,0,0,1.01.79,2.56,2.56,0,0,0,1.16.26,2.963,2.963,0,0,0,1.27-.33,4.37,4.37,0,0,0,.98-.63A3.06,3.06,0,0,0,73.69,298.42Zm28.49-29.14-.88.44L77.27,253.2a.357.357,0,0,0-.33-.05.393.393,0,0,0-.25.22l-2.73,6.43-21.5-32.4a.369.369,0,0,0-.29-.17.42.42,0,0,0-.32.11L31.28,247.99,27.76,247l-5.6,19.98L65.75,279.2l-4.32,10.19-4.88,2.41,9.19,18.61,45.64-22.53Zm-28.69-5.6-3.62,12.91a1.385,1.385,0,0,0-1.69.9l-.77-.21,5.81-13.7A1.078,1.078,0,0,0,73.49,263.68ZM52.07,228.23l20.87,31.45-40.8-11.44ZM26.39,265.77a1.4,1.4,0,0,0-.98-1.65l3.62-12.91h0a1.393,1.393,0,0,0,1.72-.96l41.77,11.71a1.374,1.374,0,0,0,.1,1l-5.97,14.1ZM66.5,279.42l4.66,1.31,5.6-19.98-2.1-.59,2.56-6.04,23.27,15.99L62.5,288.87Zm40.48,8.05L68.07,306.68a1.394,1.394,0,0,0-1.83-.57L60.3,294.09a1.4,1.4,0,0,0,.63-1.87h0l.13-.06.04.01.02-.04,38.72-19.11a1.389,1.389,0,0,0,1.86.63l5.94,12.02A1.4,1.4,0,0,0,106.98,287.47Zm-25.59,7.46.82,1.66-6.04,2.98-4.71-9.54,1.87-.92,3.89,7.88Zm14.27-8.42a3.648,3.648,0,0,1,.4,1.44,2.857,2.857,0,0,1-.25,1.27,3.172,3.172,0,0,1-.84,1.09,5.762,5.762,0,0,1-1.34.88,8.347,8.347,0,0,1-1.89.7,6.587,6.587,0,0,1-1.33.19l-.19-1.89a4.062,4.062,0,0,0,.48-.01,3.975,3.975,0,0,0,.63-.09,4.811,4.811,0,0,0,.7-.18,5.345,5.345,0,0,0,.72-.28,2.75,2.75,0,0,0,1.14-.91,1.049,1.049,0,0,0,.02-1.07,1,1,0,0,0-.67-.55,3.747,3.747,0,0,0-1.05-.1c-.4.01-.82.03-1.28.05a5.966,5.966,0,0,1-1.34-.07,3.241,3.241,0,0,1-1.23-.47,2.779,2.779,0,0,1-.97-1.16,3.123,3.123,0,0,1-.36-1.32,2.628,2.628,0,0,1,.24-1.18,3.024,3.024,0,0,1,.77-1,5.7,5.7,0,0,1,1.23-.81,9.5,9.5,0,0,1,1.64-.63,4.214,4.214,0,0,1,1.42-.18l.19,1.86a3.656,3.656,0,0,0-1.07.09,5.472,5.472,0,0,0-1.37.48,1.79,1.79,0,0,0-.87.75.9.9,0,0,0,0,.87.927.927,0,0,0,.66.52,4.129,4.129,0,0,0,1.05.11c.4,0,.83-.02,1.29-.04a5.966,5.966,0,0,1,1.34.08,3.223,3.223,0,0,1,1.23.46A2.767,2.767,0,0,1,95.66,286.51Z" fill="#333"/>
  </g>
</svg>
