<svg xmlns="http://www.w3.org/2000/svg" width="164" height="187" viewBox="0 0 164 187">
  <g id="Group_549" data-name="Group 549" transform="translate(-1026 -336)">
    <g id="room-key" transform="translate(1067 336)">
      <path id="Path_672" data-name="Path 672" d="M60.184,25.83H57.819A14.2,14.2,0,0,0,46.742,6.46,11.183,11.183,0,0,0,27.673,4.453H1.816A1.816,1.816,0,0,0,0,6.27a11.617,11.617,0,0,0,11.613,11.6H27.673a11.151,11.151,0,0,0,2.747,2.6c0,.013,0,.027,0,.04a14.1,14.1,0,0,0,1.039,5.327h-2a1.816,1.816,0,0,0-1.816,1.816V60.183A1.816,1.816,0,0,0,29.462,62H60.184A1.816,1.816,0,0,0,62,60.183V27.646A1.816,1.816,0,0,0,60.184,25.83ZM30.178,15.1a1.816,1.816,0,0,0-1.546-.863H11.613a7.991,7.991,0,0,1-7.77-6.147H28.632a1.816,1.816,0,0,0,1.546-.863,7.538,7.538,0,1,1,6.429,11.464,7.6,7.6,0,0,1-2.326-.363,10.568,10.568,0,0,1,3.411-5.793,1.816,1.816,0,0,0-2.383-2.742,14.2,14.2,0,0,0-4.242,6.482,7.67,7.67,0,0,1-.889-1.174Zm3.989,6.958a11.319,11.319,0,0,0,2.441.266A11.18,11.18,0,0,0,47.783,11.16c0-.253-.009-.5-.026-.754a10.562,10.562,0,0,1,6.192,15.131,1.833,1.833,0,0,0-.126.293H35.5a10.477,10.477,0,0,1-1.333-3.776Zm24.2,36.313H31.278v-28.9h2.338A14.205,14.205,0,0,0,44.638,34.7a1.816,1.816,0,1,0,0-3.633,10.538,10.538,0,0,1-5.6-1.606H58.367Z" transform="translate(0 0)" fill="#855c00"/>
      <path id="Path_673" data-name="Path 673" d="M327.077,307.421a1.816,1.816,0,0,0-1.816,1.816v4.849h-5.92v-4.849a1.816,1.816,0,1,0-3.633,0v13.8a1.816,1.816,0,0,0,3.633,0v-5.322h5.92v5.322a1.816,1.816,0,0,0,3.633,0v-13.8A1.816,1.816,0,0,0,327.077,307.421Z" transform="translate(-277.478 -270.194)" fill="#855c00"/>
    </g>
    <text id="Finibus_Bonorum_et_Malorum" data-name="Finibus Bonorum
et Malorum" transform="translate(1108 436)" fill="#232323" font-size="20" font-family="Playfair Display" font-weight="700"><tspan x="-81.17" y="0">Finibus Bonorum</tspan><tspan x="-53.65" y="27">et Malorum</tspan></text>
    <rect id="Rectangle_65" data-name="Rectangle 65" width="140" height="33" rx="16.5" transform="translate(1038 490)" fill="#855c00"/>
    <text id="Read_More" data-name="Read More" transform="translate(1107 513)" fill="#fff" font-size="13" font-family="Poppins-Medium, Poppins" font-weight="500"><tspan x="-35.009" y="0">Read More</tspan></text>
  </g>
</svg>
