<svg xmlns="http://www.w3.org/2000/svg" width="164" height="171.271" viewBox="0 0 164 171.271">
  <g id="Group_554" data-name="Group 554" transform="translate(-746 -677.729)">
    <g id="person-enjoying-jacuzzi-hot-water-bath" transform="translate(776.159 634.752)">
      <g id="Group_519" data-name="Group 519" transform="translate(15.74 42.977)">
        <path id="Path_682" data-name="Path 682" d="M35.638,74.268a1.474,1.474,0,0,0,2-.136c.22-.241,5.344-5.952,1.459-10.593-2.155-2.575-.564-4.071-.216-4.35A1.3,1.3,0,0,0,39.1,57.3a1.472,1.472,0,0,0-2-.215c-1.489,1.126-3.453,4.272-.227,8.126,2.419,2.889-1.346,7.111-1.383,7.152A1.3,1.3,0,0,0,35.638,74.268Z" transform="translate(-24.69 -51.404)" fill="#855c00"/>
        <path id="Path_683" data-name="Path 683" d="M77.454,55.15a1.474,1.474,0,0,0,2-.136c.22-.241,5.344-5.952,1.459-10.593-2.155-2.574-.564-4.071-.216-4.35a1.3,1.3,0,0,0,.214-1.884,1.472,1.472,0,0,0-2-.215c-1.489,1.126-3.453,4.272-.227,8.126,2.42,2.889-1.346,7.111-1.383,7.152A1.3,1.3,0,0,0,77.454,55.15Z" transform="translate(-54.076 -37.678)" fill="#855c00"/>
        <path id="Path_684" data-name="Path 684" d="M114.475,55.15a1.473,1.473,0,0,0,2-.136c.221-.241,5.345-5.952,1.46-10.593-2.155-2.574-.563-4.071-.216-4.35a1.3,1.3,0,0,0,.215-1.884,1.472,1.472,0,0,0-2-.215c-1.489,1.126-3.453,4.272-.227,8.126,2.419,2.889-1.346,7.111-1.383,7.152A1.3,1.3,0,0,0,114.475,55.15Z" transform="translate(-80.092 -37.678)" fill="#855c00"/>
        <ellipse id="Ellipse_1" data-name="Ellipse 1" cx="7.813" cy="7.414" rx="7.813" ry="7.414" transform="translate(55.461 6.879)" fill="#855c00"/>
        <path id="Path_685" data-name="Path 685" d="M8.522,99.906H64.991a8.323,8.323,0,0,0,8.524-8.088V84.144c0-1.543-1.6-2.758-4.13-3.72a6.532,6.532,0,0,1-.2,1.432c-.105.409-.221.8-.34,1.191a3.957,3.957,0,0,1,1.8,1.085,1.019,1.019,0,0,1-.122.15,1.269,1.269,0,0,1-.151.159,3.054,3.054,0,0,1-.275.186c-.087.056-.165.112-.273.171s-.268.129-.411.195c-.125.059-.241.117-.389.177l-.044.018c-.32.1-.66.219-1.049.379-.337.141-.7.267-1.066.4a26.3,26.3,0,0,0,1.726-4.731c.935-3.614-2.186-6.847-5.8-7.052a11.141,11.141,0,0,0-2.446.179c-1.421-.934-4.262-2.282-9.553-3.208,1.021-2.117,1.648-5.028-.513-7.61s-.563-4.071-.217-4.35a1.3,1.3,0,0,0,.217-1.884,1.473,1.473,0,0,0-2-.214c-1.487,1.125-3.451,4.272-.226,8.125,1.469,1.755.656,4-.216,5.5a89.032,89.032,0,0,0-10.275-.606h-.02a2.7,2.7,0,1,0-.016,5.392c7.921.05,12.863.915,15.843,1.768a12.285,12.285,0,0,0-1.848,1.564c-.795.852-1.666,1.785-2.558,2.746-6.411.953-10.349-.266-10.458-.3a2.884,2.884,0,0,0-3.628,1.611,2.657,2.657,0,0,0,1.691,3.456,24.726,24.726,0,0,0,7.1.993c-.519.581-.9,1.064-1.226,1.5-1.046,0-1.941-.017-2.583-.032-.135-.016-.272-.03-.408-.047-.885.012-1.767.025-2.688.025q-1.98,0-3.85-.034c-.469-.008-.907-.024-1.365-.036-.759-.019-1.528-.035-2.257-.062-.661-.024-1.285-.057-1.921-.086-.49-.022-1-.042-1.473-.067-.824-.046-1.608-.1-2.39-.154-.253-.017-.521-.031-.77-.05-12.225-.908-19.113-2.879-19.868-4.153,1.01-1.7,12.933-4.64,33.892-4.64,4.185,0,7.992.121,11.441.321l1.455-1.561a68.989,68.989,0,0,0-12.923-1.106,4.4,4.4,0,0,1-1.669-.337C27.78,76.916,0,77.7,0,84.144v7.674A8.321,8.321,0,0,0,8.522,99.906Z" transform="translate(0 -51.406)" fill="#855c00"/>
      </g>
    </g>
    <text id="Finibus_Bonorum_et_Malorum" data-name="Finibus Bonorum
et Malorum" transform="translate(828 760)" fill="#232323" font-size="20" font-family="Playfair Display" font-weight="700"><tspan x="-81.17" y="0">Finibus Bonorum</tspan><tspan x="-53.65" y="27">et Malorum</tspan></text>
    <rect id="Rectangle_67" data-name="Rectangle 67" width="140" height="33" rx="16.5" transform="translate(760 816)" fill="#855c00"/>
    <text id="More_info" data-name="More info" transform="translate(827 837)" fill="#fff" font-size="13" font-family="Poppins-Medium, Poppins" font-weight="500"><tspan x="-30.316" y="0">More info</tspan></text>
  </g>
</svg>
