<svg xmlns="http://www.w3.org/2000/svg" width="164" height="184.606" viewBox="0 0 164 184.606">
  <g id="Group_553" data-name="Group 553" transform="translate(-169 -337.394)">
    <g id="hotel" transform="translate(219 337.394)">
      <g id="Group_512" data-name="Group 512" transform="translate(8.543)">
        <g id="Group_511" data-name="Group 511" transform="translate(0 5.054)">
          <path id="Path_656" data-name="Path 656" d="M82.549,42H72.8A1.8,1.8,0,0,0,71,43.8v1.8H83.819A9.143,9.143,0,0,1,82.549,42Z" transform="translate(-71 -42)" fill="#855c00"/>
          <path id="Path_657" data-name="Path 657" d="M347.284,43.8a1.8,1.8,0,0,0-1.8-1.8h-9.744a9.143,9.143,0,0,1-1.27,3.61h12.819Z" transform="translate(-302.764 -42)" fill="#855c00"/>
          <path id="Path_658" data-name="Path 658" d="M361,432h3.61v9.626H361Z" transform="translate(-326.106 -385.074)" fill="#855c00"/>
          <path id="Path_659" data-name="Path 659" d="M241,432h3.61v9.626H241Z" transform="translate(-220.545 -385.074)" fill="#855c00"/>
          <path id="Path_660" data-name="Path 660" d="M121,432h3.61v9.626H121Z" transform="translate(-114.984 -385.074)" fill="#855c00"/>
        </g>
        <path id="Path_661" data-name="Path 661" d="M206.728,0a4.064,4.064,0,0,0-3.068,1.411,4.075,4.075,0,0,0-7.159,2.68c0,4.519,7.159,8.182,7.159,8.182s7.159-3.663,7.159-8.182A4.091,4.091,0,0,0,206.728,0Z" transform="translate(-181.399 0)" fill="#855c00"/>
      </g>
      <path id="Path_662" data-name="Path 662" d="M59.75,147.723H57.876V103.8a1.8,1.8,0,0,0-1.8-1.8H37.135c-.147.129-.3.257-.451.385a25.468,25.468,0,0,1-4.236,2.829l-.822.421a1.805,1.805,0,0,1-1.644,0l-.822-.421a25.479,25.479,0,0,1-4.236-2.829c-.154-.128-.3-.256-.451-.385H5.535a1.8,1.8,0,0,0-1.8,1.8v43.918H1.856A1.838,1.838,0,0,0,0,149.441a1.8,1.8,0,0,0,1.8,1.892h9.145V139.9a1.8,1.8,0,0,1,1.8-1.8h7.219a1.8,1.8,0,0,1,1.8,1.8v11.431h3.61V139.9a1.8,1.8,0,0,1,1.8-1.8h7.219a1.8,1.8,0,0,1,1.8,1.8v11.431h3.61V139.9a1.8,1.8,0,0,1,1.8-1.8h7.219a1.8,1.8,0,0,1,1.8,1.8v11.431H59.8a1.8,1.8,0,0,0,1.8-1.892A1.838,1.838,0,0,0,59.75,147.723ZM16.364,134.487h-3.61a1.8,1.8,0,1,1,0-3.61h3.61a1.8,1.8,0,1,1,0,3.61Zm0-7.219h-3.61a1.8,1.8,0,0,1,0-3.61h3.61a1.8,1.8,0,0,1,0,3.61Zm0-7.219h-3.61a1.8,1.8,0,1,1,0-3.61h3.61a1.8,1.8,0,0,1,0,3.61Zm0-7.219h-3.61a1.8,1.8,0,1,1,0-3.61h3.61a1.8,1.8,0,1,1,0,3.61Zm10.829,21.658h-3.61a1.8,1.8,0,1,1,0-3.61h3.61a1.8,1.8,0,1,1,0,3.61Zm0-7.219h-3.61a1.8,1.8,0,0,1,0-3.61h3.61a1.8,1.8,0,0,1,0,3.61Zm0-7.219h-3.61a1.8,1.8,0,1,1,0-3.61h3.61a1.8,1.8,0,1,1,0,3.61Zm0-7.219h-3.61a1.8,1.8,0,1,1,0-3.61h3.61a1.8,1.8,0,1,1,0,3.61Zm10.829,21.658h-3.61a1.8,1.8,0,1,1,0-3.61h3.61a1.8,1.8,0,1,1,0,3.61Zm0-7.219h-3.61a1.8,1.8,0,0,1,0-3.61h3.61a1.8,1.8,0,1,1,0,3.61Zm0-7.219h-3.61a1.8,1.8,0,1,1,0-3.61h3.61a1.8,1.8,0,1,1,0,3.61Zm0-7.219h-3.61a1.8,1.8,0,1,1,0-3.61h3.61a1.8,1.8,0,1,1,0,3.61Zm10.829,21.658h-3.61a1.8,1.8,0,1,1,0-3.61h3.61a1.8,1.8,0,1,1,0,3.61Zm0-7.219h-3.61a1.8,1.8,0,0,1,0-3.61h3.61a1.8,1.8,0,0,1,0,3.61Zm0-7.219h-3.61a1.8,1.8,0,1,1,0-3.61h3.61a1.8,1.8,0,1,1,0,3.61Zm0-7.219h-3.61a1.8,1.8,0,1,1,0-3.61h3.61a1.8,1.8,0,1,1,0,3.61Z" transform="translate(0 -89.727)" fill="#855c00"/>
    </g>
    <text id="Finibus_Bonorum_et_Malorum" data-name="Finibus Bonorum
et Malorum" transform="translate(251 433)" fill="#232323" font-size="20" font-family="Playfair Display" font-weight="700"><tspan x="-81.17" y="0">Finibus Bonorum</tspan><tspan x="-53.65" y="27">et Malorum</tspan></text>
    <rect id="Rectangle_62" data-name="Rectangle 62" width="140" height="33" rx="16.5" transform="translate(180 489)" fill="#855c00"/>
    <text id="More_info" data-name="More info" transform="translate(250 510)" fill="#fff" font-size="13" font-family="Poppins-Medium, Poppins" font-weight="500"><tspan x="-30.316" y="0">More info</tspan></text>
  </g>
</svg>
