<svg xmlns="http://www.w3.org/2000/svg" width="60.616" height="57.506" viewBox="0 0 60.616 57.506">
  <path id="Path_827" data-name="Path 827" d="M39.87,70.15H76.95v8.5H39.87ZM89,41.67c-1.39,9.57-11.9,9.76-11.9,9.76l-.18,17.65h-37L39.8,51.65s-8.7-1.58-9.85-6.98a12.459,12.459,0,0,1,4.69-13c8.31-6.06,15.66.99,15.66.99s.04-2.79-5.28-4.57c2.47-4.8,15.22-9.3,22.26-2.27,5.81,5.79,6.03,10.82,4.96,14,2.66-3,2.38-8.61-1.15-12.44C81.04,24.75,90.53,31.11,89,41.67ZM45.21,55.54a73.533,73.533,0,0,1,.67,11C47.12,66.46,46.46,59.21,45.21,55.54Zm5.85-8.5s1.75,8.75,1.67,14.5c-.08,3,0,5,0,5h1S54.73,53.21,51.06,47.04Zm9.48,19.5s-.58-20.42-3.25-25.67c0,0,2.31,16,2.11,25.67Zm9.19-20.41a42.643,42.643,0,0,0-3.4,15.42c-.04,3,0,5,0,5h1C67.33,66.54,67.21,54.09,69.73,46.13Zm3.13,10.96c-1.25,3.15-1.92,9.39-.67,9.46A53.246,53.246,0,0,1,72.86,57.09Z" transform="translate(-29.068 -21.644)" fill="none" stroke="#707070" stroke-width="1" opacity="0.44"/>
</svg>
