<svg xmlns="http://www.w3.org/2000/svg" width="47.161" height="74.29" viewBox="0 0 47.161 74.29">
  <path id="Path_843" data-name="Path 843" d="M56.39,162.59v16.88a39.926,39.926,0,0,1-6.2.47,39.334,39.334,0,0,1-6.2-.47V162.59c0-.21.11-5.21,6.2-5.21C56.32,157.37,56.39,162.38,56.39,162.59ZM46.43,135.3s0,1.02-.02,2.27h1.02v-7.79H48.9v7.79h5.05c-.01-1.26-.02-2.27-.02-2.27h.01v-6.38h.39V125.9h-.39v-1.11H48.9v1.12h-.31v2.9H47.05v-2.9h.38v-1.12h-1v1.11h-.39v3.02h.39Zm12.08,11.74c1.5,1.89,1.95,3.67,1.95,7.63v40.72c0,1.49-4.6,2.69-10.26,2.69s-10.26-1.21-10.26-2.69V154.67c0-3.95.45-5.73,1.94-7.63,1.89-2.39,4.41-3.63,4.48-5.42.02-.58.04-1.46.05-2.37h1.04v2.26a6.546,6.546,0,0,1-1.9,4.33l-.2.19c-2.26,2.14-4.05,3.83-4.05,8.69v40.84l1.47.57V154.72c0-4.23,1.35-5.51,3.59-7.62l.2-.19a8.028,8.028,0,0,0,2.36-5.39v-2.26h5.07c.01.91.03,1.78.05,2.37C54.09,143.41,56.61,144.65,58.51,147.04ZM57.3,162.43s0-6.1-7.11-6.1-7.11,6.1-7.11,6.1v17.94a38.987,38.987,0,0,0,7.11.6,39.817,39.817,0,0,0,7.11-.6Zm21.76,22.16V196.4h4.92v.61H73.14v-.61h4.91V184.59h.01s-.01-3.01-.06-4.2-3.57-2.13-4.96-3.6a6,6,0,0,1-1.99-5.06c.18-3.15,2.11-12.55,2.11-12.55H83.98s1.93,9.4,2.11,12.55a5.91,5.91,0,0,1-1.99,5.06c-1.41,1.46-4.92,2.41-4.97,3.6S79.06,184.59,79.06,184.59Zm5.48-16.55-1.08-8.21H73.71l-1.17,8.21h.77c-.55,7.64,1.27,8.43,3.89,9.61-2.41-1.89-2.75-5.9-2.44-9.61Z" transform="translate(-39.44 -124.29)" fill="none" stroke="#333" stroke-width="1" opacity="0.44"/>
</svg>
