<svg xmlns="http://www.w3.org/2000/svg" width="64.267" height="64.134" viewBox="0 0 64.267 64.134">
  <path id="Path_829" data-name="Path 829" d="M306.98,71.93a3.865,3.865,0,1,1-5.45,5.44l-16.8-18.45a10.785,10.785,0,0,1-3.89-.86l6.14-6.14,4,4ZM271.61,51.68l7.55-7.55-7.66-7.66L255.72,20.69a2.2,2.2,0,0,0-1.88-.66c-.51.06-1.25.55-1.39,1.8-.53,5.13,3.23,14.04,16.6,27.41C269.96,50.13,270.8,50.93,271.61,51.68Zm14.04-21.05.97-.97.02-.02Zm28.27-1.71c-.85-.85-2.03-1.06-2.63-.46L299.32,40.43a1.782,1.782,0,0,1-2.47-.31,1.8,1.8,0,0,1-.31-2.47l11.97-11.97a1.948,1.948,0,0,0-.46-2.62c-.85-.85-2.03-1.06-2.63-.46L293.44,34.56a2.029,2.029,0,0,1-2.78-2.78l11.98-11.96a1.948,1.948,0,0,0-.46-2.62c-.85-.85-2.03-1.06-2.63-.46L286.62,29.67c-4.21,4.23-2.86,7.17-.46,9.83L252.88,72.78a3.865,3.865,0,1,0,5.44,5.45L291.6,44.95c2.67,2.41,5.61,3.76,9.85-.48l12.92-12.92C314.97,30.95,314.77,29.77,313.92,28.92Z" transform="translate(-251.08 -15.894)" fill="none" stroke="#707070" stroke-width="1" opacity="0.44"/>
</svg>
