<svg xmlns="http://www.w3.org/2000/svg" width="85.317" height="69.833" viewBox="0 0 85.317 69.833">
  <path id="Path_845" data-name="Path 845" d="M163.83,242.24l-31.48,27.32,19.83,40.98,38.96-35.63Zm-17.3,32.94-.08-.27q.165-.24.33-.45c.11-.14.23-.28.35-.43l-1.17-4.28-.26-1.15-.08.07.01,1.26-.55,6.55-.23.21-2.98-3.45-.6-.86-.07.06.31,1.23,1.07,4.39c.12-.07.24-.14.37-.2a2.955,2.955,0,0,1,.37-.16l.07.28-1.88,1.66-.08-.28a6.788,6.788,0,0,1,.68-.89l-1.4-5.78c-.13.08-.26.15-.39.22s-.26.12-.38.17l-.07-.28,1.81-1.58,2.6,3.12.56.73.01-.01v-1.25l.46-5.78,1.6-1.41.07.28a5.244,5.244,0,0,1-.59.81l1.56,5.63c.13-.08.26-.16.38-.23a1.475,1.475,0,0,1,.35-.15l.09.27Zm3.4-3-.09-.27a6.109,6.109,0,0,1,.68-.88l-1.63-5.54a3.718,3.718,0,0,1-.39.21,2.873,2.873,0,0,1-.4.18l-.07-.28,4.12-3.61c.08.24.15.49.22.76a6.828,6.828,0,0,1,.16.81l-.23.2-.68-.69-1.89,1.66.75,2.45,1.43-1.26.13-.99.22-.19c.11.29.22.59.31.9a9.648,9.648,0,0,1,.26.96l-.22.2-.56-.4-1.44,1.27.78,2.6,2.05-1.81.1-1.5.22-.2q.165.315.33.69a5.012,5.012,0,0,1,.27.8Zm10.72-9.35-4.98-2.05-.57-.41-.03.02.29.65,1.42,4.3a2.32,2.32,0,0,1,.39-.18,2.186,2.186,0,0,1,.4-.11l.09.26-1.89,1.67-.09-.26a4.294,4.294,0,0,1,.64-.97l-1.72-5.2a4,4,0,0,1-.4.15c-.13.04-.25.08-.36.11l-.09-.25,1.44-1.26,4.25,1.8.7.38.04-.03-.29-.75-1.29-3.6a3.73,3.73,0,0,1-.8.24l-.1-.25,1.84-1.61.1.25a3.07,3.07,0,0,1-.26.51,4.288,4.288,0,0,1-.32.47l2.05,5.69Zm5.35-4.77a4.482,4.482,0,0,1-1.1.75,1.945,1.945,0,0,1-.92.2,1.167,1.167,0,0,1-.71-.3,1.87,1.87,0,0,1-.48-.75l-1.34-3.5c-.13.08-.27.16-.41.24a2.1,2.1,0,0,1-.39.17l-.1-.25,2.21-1.94.1.25a6.336,6.336,0,0,1-.57.79l1.32,3.44a1.8,1.8,0,0,0,.42.68.834.834,0,0,0,.54.24,1.265,1.265,0,0,0,.63-.15,3.453,3.453,0,0,0,.71-.5,2.847,2.847,0,0,0,.92-1.34,2.283,2.283,0,0,0-.15-1.52l-1.39-3.38a3.951,3.951,0,0,1-.81.32l-.1-.24,1.86-1.63.1.25a3.273,3.273,0,0,1-.24.44,4.974,4.974,0,0,1-.32.44l1.42,3.4a2.887,2.887,0,0,1,.13,2.07A4.425,4.425,0,0,1,166,258.06Zm49.85,52.2H153.69l2.57-2.35.03.06,52.76.03-1.52-1.6-49.56-.05,2.06-1.88,45.73.07-1.52-1.6-42.44-.08,2.05-1.88,38.62.09-1.52-1.6-35.34-.1,2.04-1.87,31.52.11-8.6-9.02-13.08-.09,1.47-1.34,10.32.07-1.52-1.6-7.07-.05,2.01-1.84,3.29.03-1.52-1.6h-.05l1.87-1.71Z" transform="translate(-131.733 -241.529)" fill="none" stroke="#333" stroke-width="1" opacity="0.44"/>
</svg>
