<svg xmlns="http://www.w3.org/2000/svg" width="85.314" height="70.033" viewBox="0 0 85.314 70.033">
  <path id="Path_852" data-name="Path 852" d="M163.83,242.24l-31.48,27.4,19.83,41.1L191.14,275Zm-17.3,33.035-.08-.271q.165-.241.33-.451c.11-.14.23-.281.35-.431l-1.17-4.292-.26-1.153-.08.07.01,1.264-.55,6.569-.23.211-2.98-3.46-.6-.862-.07.06.31,1.234,1.07,4.4c.12-.07.24-.14.37-.2a2.95,2.95,0,0,1,.37-.16l.07.281-1.88,1.665-.08-.281a6.808,6.808,0,0,1,.68-.893l-1.4-5.8c-.13.08-.26.15-.39.221s-.26.12-.38.171l-.07-.281,1.81-1.585,2.6,3.129.56.732.01-.01V273.9l.46-5.8,1.6-1.414.07.281a5.259,5.259,0,0,1-.59.812l1.56,5.646c.13-.08.26-.16.38-.231a1.472,1.472,0,0,1,.35-.15l.09.271Zm3.4-3.009-.09-.271a6.126,6.126,0,0,1,.68-.883l-1.63-5.556a3.714,3.714,0,0,1-.39.211,2.872,2.872,0,0,1-.4.181l-.07-.281,4.12-3.62c.08.241.15.491.22.762a6.865,6.865,0,0,1,.16.812l-.23.2-.68-.692-1.89,1.665.75,2.457,1.43-1.264.13-.993.22-.191c.11.291.22.592.31.9a9.7,9.7,0,0,1,.26.963l-.22.2-.56-.4-1.44,1.274.78,2.608,2.05-1.815.1-1.5.22-.2q.165.316.33.692a5.038,5.038,0,0,1,.27.8Zm10.72-9.377-4.98-2.056-.57-.411-.03.02.29.652,1.42,4.312a2.314,2.314,0,0,1,.39-.181,2.181,2.181,0,0,1,.4-.11l.09.261-1.89,1.675-.09-.261a4.307,4.307,0,0,1,.64-.973L154.6,260.6a4,4,0,0,1-.4.15c-.13.04-.25.08-.36.11l-.09-.251,1.44-1.264,4.25,1.805.7.381.04-.03-.29-.752-1.29-3.61a3.723,3.723,0,0,1-.8.241l-.1-.251,1.84-1.615.1.251a3.082,3.082,0,0,1-.26.511,4.3,4.3,0,0,1-.32.471l2.05,5.706Zm5.35-4.784a4.481,4.481,0,0,1-1.1.752,1.94,1.94,0,0,1-.92.2,1.165,1.165,0,0,1-.71-.3,1.876,1.876,0,0,1-.48-.752l-1.34-3.51c-.13.08-.27.16-.41.241a2.1,2.1,0,0,1-.39.17l-.1-.251,2.21-1.946.1.251a6.355,6.355,0,0,1-.57.792l1.32,3.45a1.81,1.81,0,0,0,.42.682.833.833,0,0,0,.54.241,1.262,1.262,0,0,0,.63-.15,3.453,3.453,0,0,0,.71-.5,2.856,2.856,0,0,0,.92-1.344,2.3,2.3,0,0,0-.15-1.524l-1.39-3.39a3.944,3.944,0,0,1-.81.321l-.1-.241,1.86-1.635.1.251a3.286,3.286,0,0,1-.24.441,4.987,4.987,0,0,1-.32.441l1.42,3.41a2.9,2.9,0,0,1,.13,2.076A4.437,4.437,0,0,1,166,258.106Zm49.85,52.351H153.69l2.57-2.357.03.06,52.76.03-1.52-1.6-49.56-.05,2.06-1.885,45.73.07-1.52-1.6-42.44-.08,2.05-1.885,38.62.09-1.52-1.6-35.34-.1,2.04-1.875,31.52.11-8.6-9.046-13.08-.09,1.47-1.344,10.32.07-1.52-1.6-7.07-.05,2.01-1.845,3.29.03-1.52-1.6h-.05l1.87-1.715Z" transform="translate(-131.734 -241.527)" fill="none" stroke="#333" stroke-width="1" opacity="0.44"/>
</svg>
