<svg xmlns="http://www.w3.org/2000/svg" width="55.281" height="44.273" viewBox="0 0 55.281 44.273">
  <path id="Path_851" data-name="Path 851" d="M262.575,158.509a2.079,2.079,0,0,1-.418-.471,1.98,1.98,0,0,1-.493-.538c-.1-.075-.2-.157-.3-.239-.045-.037-.082-.09-.127-.127-.015,0-.03-.007-.052-.007h-.09a2.065,2.065,0,0,0-1.188,3.758,1.862,1.862,0,0,0,.262.157,1.149,1.149,0,0,0,.142.06c.067.03.142.052.209.075.045.015.082.022.127.037a1.97,1.97,0,0,0,.366.052h.09c.06,0,.12-.015.179-.015s.127-.007.187-.015.142-.037.209-.052a1.155,1.155,0,0,0,.172-.052,1.569,1.569,0,0,0,.194-.1c.052-.03.1-.052.157-.082s.12-.09.179-.134.09-.067.134-.1a1.714,1.714,0,0,0,.157-.172.805.805,0,0,0,.1-.12,1.566,1.566,0,0,0,.127-.209c.022-.045.052-.082.075-.127a2.7,2.7,0,0,0,.1-.261.56.56,0,0,0,.037-.12,2.48,2.48,0,0,0,.06-.411,2.431,2.431,0,0,0-.022-.4A4.25,4.25,0,0,1,262.575,158.509Zm-1.815,1.965a1.323,1.323,0,0,1,.344-2.6h.06a1.314,1.314,0,0,1,.919.426,1.3,1.3,0,0,1,.224.344A4.18,4.18,0,0,1,260.76,160.474Zm2.413.62a2.065,2.065,0,0,0-1.188,3.758,1.865,1.865,0,0,0,.261.157,1.149,1.149,0,0,0,.142.06c.067.03.142.052.209.075.045.015.082.022.127.037a1.966,1.966,0,0,0,.366.052h.09c.06,0,.12-.015.179-.015s.127-.007.187-.015.142-.037.209-.052a1.155,1.155,0,0,0,.172-.052,1.567,1.567,0,0,0,.194-.1c.052-.03.1-.052.157-.082s.12-.09.179-.134.09-.067.134-.1a1.708,1.708,0,0,0,.157-.172.8.8,0,0,0,.1-.12,1.566,1.566,0,0,0,.127-.209c.022-.045.052-.082.075-.127a2.7,2.7,0,0,0,.1-.261.559.559,0,0,0,.037-.12,2.47,2.47,0,0,0,.06-.411,1.616,1.616,0,0,0-.03-.426.108.108,0,0,0-.015-.052,1.878,1.878,0,0,0-.1-.351.007.007,0,0,0-.007-.007,2.074,2.074,0,0,0-1.838-1.315A.19.19,0,0,0,263.173,161.094Zm1.2,1.517a4.163,4.163,0,0,1-1.539,1.83,1.323,1.323,0,0,1,.344-2.6h.06a1.313,1.313,0,0,1,.919.426A1.4,1.4,0,0,1,264.368,162.61Zm-7.351,6.672a1.154,1.154,0,0,0,.172-.052,1.569,1.569,0,0,0,.194-.1c.052-.03.1-.052.157-.082s.12-.09.179-.134.09-.067.134-.1a1.718,1.718,0,0,0,.157-.172.8.8,0,0,0,.1-.12,1.57,1.57,0,0,0,.127-.209c.022-.045.052-.082.075-.127a2.7,2.7,0,0,0,.1-.261.558.558,0,0,0,.037-.12,2.474,2.474,0,0,0,.06-.411,1.613,1.613,0,0,0-.03-.426.108.108,0,0,0-.015-.052,1.876,1.876,0,0,0-.1-.351.007.007,0,0,0-.007-.007,2.074,2.074,0,0,0-1.838-1.315h-.09A2.065,2.065,0,0,0,255.246,169a1.866,1.866,0,0,0,.262.157,1.153,1.153,0,0,0,.142.06c.067.03.142.052.209.075.045.015.082.022.127.037a1.968,1.968,0,0,0,.366.052h.09c.06,0,.12-.015.179-.015s.127-.007.187-.015S256.942,169.3,257.017,169.282Zm-.926-.7a1.323,1.323,0,0,1,.344-2.6h.06a1.313,1.313,0,0,1,.919.426,1.3,1.3,0,0,1,.224.344A4.18,4.18,0,0,1,256.091,168.58Zm1.225,4.385a1.867,1.867,0,0,0,.261.157,1.156,1.156,0,0,0,.142.06c.067.03.142.052.209.075.045.015.082.022.127.037a1.964,1.964,0,0,0,.366.052h.09c.06,0,.12-.015.179-.015s.127-.007.187-.015a1.7,1.7,0,0,0,.209-.06,1.153,1.153,0,0,0,.172-.052,1.569,1.569,0,0,0,.194-.1c.052-.03.1-.052.157-.082s.12-.09.179-.134.09-.067.134-.1a1.714,1.714,0,0,0,.157-.172.8.8,0,0,0,.1-.12,1.564,1.564,0,0,0,.127-.209c.022-.045.052-.082.075-.127a2.707,2.707,0,0,0,.1-.262.559.559,0,0,0,.037-.12,2.477,2.477,0,0,0,.06-.411,1.615,1.615,0,0,0-.03-.426.108.108,0,0,0-.015-.052,1.878,1.878,0,0,0-.1-.351.007.007,0,0,0-.007-.007,2.074,2.074,0,0,0-1.838-1.315h-.09a2.06,2.06,0,0,0-1.188,3.75Zm1.188-3.018h.06a1.313,1.313,0,0,1,.919.426,1.3,1.3,0,0,1,.224.344,4.163,4.163,0,0,1-1.539,1.83,1.329,1.329,0,0,1-.979-1.33A1.313,1.313,0,0,1,258.5,169.947Zm-8.584-4.856a1.569,1.569,0,0,0,.194-.1c.052-.03.1-.052.157-.082a1.608,1.608,0,0,0,.179-.134c.045-.037.09-.067.134-.1a1.721,1.721,0,0,0,.157-.172.8.8,0,0,0,.1-.12,1.563,1.563,0,0,0,.127-.209c.022-.045.052-.082.075-.127a2.7,2.7,0,0,0,.1-.262.561.561,0,0,0,.037-.12,2.478,2.478,0,0,0,.06-.411,1.615,1.615,0,0,0-.03-.426.108.108,0,0,0-.015-.052,1.878,1.878,0,0,0-.1-.351.007.007,0,0,0-.007-.007,2.074,2.074,0,0,0-1.838-1.315h-.09a2.065,2.065,0,0,0-1.188,3.758,1.867,1.867,0,0,0,.261.157,1.156,1.156,0,0,0,.142.06c.067.03.142.052.209.075.045.015.082.022.127.037a1.965,1.965,0,0,0,.366.052h.09c.06,0,.12-.015.179-.015s.127-.007.187-.015.142-.037.209-.052S249.867,165.113,249.92,165.091Zm-1.1-.65a1.323,1.323,0,0,1,.344-2.6h.06a1.313,1.313,0,0,1,.919.426,1.3,1.3,0,0,1,.224.344A4.132,4.132,0,0,1,248.821,164.441Zm12.2,4.931h.09c.06,0,.12-.015.179-.015s.127-.007.187-.015a1.711,1.711,0,0,0,.209-.06,1.155,1.155,0,0,0,.172-.052,1.573,1.573,0,0,0,.194-.1c.052-.03.1-.052.157-.082s.12-.09.179-.134.09-.067.134-.1a1.71,1.71,0,0,0,.157-.172.8.8,0,0,0,.1-.12,1.57,1.57,0,0,0,.127-.209c.022-.045.052-.082.075-.127a2.7,2.7,0,0,0,.1-.261.558.558,0,0,0,.037-.12,2.474,2.474,0,0,0,.06-.411,1.612,1.612,0,0,0-.03-.426.108.108,0,0,0-.015-.052,1.881,1.881,0,0,0-.1-.351.007.007,0,0,0-.007-.007,2.074,2.074,0,0,0-1.838-1.315h-.09A2.065,2.065,0,0,0,259.916,169a1.867,1.867,0,0,0,.262.157,1.157,1.157,0,0,0,.142.06c.067.03.142.052.209.075.045.015.082.022.127.037A2.884,2.884,0,0,0,261.021,169.372Zm-1.24-2.122a1.324,1.324,0,0,1,1.322-1.27h.06a1.313,1.313,0,0,1,.919.426,1.3,1.3,0,0,1,.224.344,4.164,4.164,0,0,1-1.539,1.83A1.328,1.328,0,0,1,259.781,167.25Zm4.8-6.365a2.066,2.066,0,0,1-.874-1.711,3.331,3.331,0,0,0,.784.3,1.326,1.326,0,0,0,.934,1,3.764,3.764,0,0,0,.949-.867,6.337,6.337,0,0,0,1.457-.261,1.811,1.811,0,0,1-.052.351c-.008.045-.03.082-.037.12a1.565,1.565,0,0,1-.1.261c-.022.045-.052.082-.075.127a1.2,1.2,0,0,1-.127.209.8.8,0,0,1-.1.12,1.709,1.709,0,0,1-.157.172c-.037.037-.09.067-.134.1a1.6,1.6,0,0,1-.179.134c-.052.03-.1.052-.157.082s-.127.067-.194.1-.12.037-.172.052a1.073,1.073,0,0,1-.209.052,1.574,1.574,0,0,1-.187.015,1.455,1.455,0,0,1-.179.015h-.09a1.966,1.966,0,0,1-.366-.052.816.816,0,0,1-.127-.037,1.721,1.721,0,0,1-.209-.075c-.045-.022-.1-.037-.142-.06A1.5,1.5,0,0,1,264.585,160.885Zm.62,10a1.878,1.878,0,0,0-.1-.351.007.007,0,0,0-.007-.007,2.074,2.074,0,0,0-1.838-1.315h-.09a2.065,2.065,0,0,0-1.188,3.758,1.865,1.865,0,0,0,.261.157,1.154,1.154,0,0,0,.142.06c.067.03.142.052.209.075.045.015.082.022.127.037a1.964,1.964,0,0,0,.366.052h.09c.06,0,.12-.015.179-.015s.127-.007.187-.015a1.706,1.706,0,0,0,.209-.06,1.152,1.152,0,0,0,.172-.052,1.567,1.567,0,0,0,.194-.1c.052-.03.1-.052.157-.082s.12-.09.179-.134.09-.067.134-.1a1.71,1.71,0,0,0,.157-.172.8.8,0,0,0,.1-.12,1.567,1.567,0,0,0,.127-.209c.022-.045.052-.082.075-.127a2.7,2.7,0,0,0,.1-.262.559.559,0,0,0,.037-.12,2.47,2.47,0,0,0,.06-.411,1.616,1.616,0,0,0-.03-.426A.229.229,0,0,1,265.205,170.881Zm-2.376,1.666a1.323,1.323,0,0,1,.344-2.6h.06a1.314,1.314,0,0,1,.919.426,1.3,1.3,0,0,1,.224.344A4.132,4.132,0,0,1,262.829,172.547Zm.306,2.473a1.881,1.881,0,0,0-.1-.351.007.007,0,0,0-.007-.007,2.074,2.074,0,0,0-1.838-1.315h-.09a2.065,2.065,0,0,0-1.188,3.758,1.863,1.863,0,0,0,.262.157,1.151,1.151,0,0,0,.142.06c.067.03.142.052.209.075.045.015.082.022.127.037a1.966,1.966,0,0,0,.366.052h.09c.06,0,.12-.015.179-.015s.127-.007.187-.015.142-.037.209-.052a1.153,1.153,0,0,0,.172-.052,1.573,1.573,0,0,0,.194-.1c.052-.03.1-.052.157-.082s.12-.09.179-.134.09-.067.134-.1a1.71,1.71,0,0,0,.157-.172.8.8,0,0,0,.1-.12,1.569,1.569,0,0,0,.127-.209c.022-.045.052-.082.075-.127a2.7,2.7,0,0,0,.1-.262.558.558,0,0,0,.037-.12,2.474,2.474,0,0,0,.06-.411,1.612,1.612,0,0,0-.03-.426A.38.38,0,0,1,263.136,175.02Zm-2.376,1.666a1.323,1.323,0,0,1,.344-2.6h.06a1.313,1.313,0,0,1,.919.426,1.3,1.3,0,0,1,.224.344A4.18,4.18,0,0,1,260.76,176.686Zm-.224,2.3a1.878,1.878,0,0,0-.1-.351.007.007,0,0,0-.007-.007,2.074,2.074,0,0,0-1.838-1.315h-.09a2.065,2.065,0,0,0-1.188,3.758,1.865,1.865,0,0,0,.261.157,1.153,1.153,0,0,0,.142.06c.067.03.142.052.209.075.045.015.082.022.127.037a1.965,1.965,0,0,0,.366.052h.09c.06,0,.12-.015.179-.015s.127-.007.187-.015c.075-.015.142-.037.209-.052a1.158,1.158,0,0,0,.172-.052,1.569,1.569,0,0,0,.194-.1c.052-.03.1-.052.157-.082s.12-.09.179-.134.09-.067.134-.1a1.712,1.712,0,0,0,.157-.172.8.8,0,0,0,.1-.12,1.564,1.564,0,0,0,.127-.209c.022-.045.052-.082.075-.127a2.708,2.708,0,0,0,.1-.261.56.56,0,0,0,.037-.12,2.477,2.477,0,0,0,.06-.411,1.615,1.615,0,0,0-.03-.426A.276.276,0,0,1,260.536,178.987Zm-2.376,1.673a1.323,1.323,0,0,1,.344-2.6h.06a1.313,1.313,0,0,1,.919.426,1.3,1.3,0,0,1,.224.344A4.132,4.132,0,0,1,258.16,180.66Zm9.645-13.747a1.883,1.883,0,0,0-.1-.351.007.007,0,0,0-.007-.007,2.074,2.074,0,0,0-1.838-1.315h-.09A2.065,2.065,0,0,0,264.585,169a1.861,1.861,0,0,0,.262.157,1.149,1.149,0,0,0,.142.06c.067.03.142.052.209.075.045.015.082.022.127.037a1.97,1.97,0,0,0,.366.052h.09c.06,0,.12-.015.179-.015s.127-.007.187-.015a1.708,1.708,0,0,0,.209-.06,1.153,1.153,0,0,0,.172-.052,1.569,1.569,0,0,0,.194-.1c.052-.03.1-.052.157-.082s.12-.09.179-.134.09-.067.134-.1a1.708,1.708,0,0,0,.157-.172.8.8,0,0,0,.1-.12,1.568,1.568,0,0,0,.127-.209c.022-.045.052-.082.075-.127a2.7,2.7,0,0,0,.1-.261.561.561,0,0,0,.037-.12,2.48,2.48,0,0,0,.06-.411,1.613,1.613,0,0,0-.03-.426A.338.338,0,0,1,267.8,166.914Zm-2.376,1.666a1.323,1.323,0,0,1,.344-2.6h.06a1.313,1.313,0,0,1,.919.426,1.3,1.3,0,0,1,.224.344A4.18,4.18,0,0,1,265.429,168.58Zm4.445-5.812a1.881,1.881,0,0,0-.1-.351.007.007,0,0,0-.007-.007,2.074,2.074,0,0,0-1.838-1.315h-.09a2.065,2.065,0,0,0-1.188,3.758,1.869,1.869,0,0,0,.261.157,1.153,1.153,0,0,0,.142.06c.067.03.142.052.209.075.045.015.082.022.127.037a1.966,1.966,0,0,0,.366.052h.09c.06,0,.12-.015.179-.015s.127-.007.187-.015.142-.037.209-.052a1.155,1.155,0,0,0,.172-.052,1.571,1.571,0,0,0,.194-.1c.052-.03.1-.052.157-.082s.12-.09.179-.134.09-.067.134-.1a1.712,1.712,0,0,0,.157-.172.8.8,0,0,0,.1-.12,1.566,1.566,0,0,0,.127-.209c.022-.045.052-.082.075-.127a2.714,2.714,0,0,0,.1-.261.561.561,0,0,0,.037-.12,2.47,2.47,0,0,0,.06-.411,1.615,1.615,0,0,0-.03-.426A.276.276,0,0,1,269.874,162.767Zm-2.376,1.674a1.323,1.323,0,0,1,.344-2.6h.06a1.313,1.313,0,0,1,.919.426,1.3,1.3,0,0,1,.224.344A4.132,4.132,0,0,1,267.5,164.441Zm4.475-17.549c.755-1.068,1.786-2.331,1.8-2.906s-1.218-.882-2.428-.882-2.144.329-3.3.426-1.464-.59-1.711-.56-.187.837-.777,1.233-.388,1.091-.9,2.062-1.076,1.106-.792-.075.725-1.076-.276-2.473-.695-2.742-.934-3.1-.822.695-1.771,2.017-.374,1.479-1.225,1.494-.56,1.442-1.345.717-.755,1.046-.732,1.726-1.091.261-1.464.067-1.248.1-.695,1.621.344,2.5.9,3.4.732,1.659,1.92,1.786,2-.62,2.951-.635,1.748-.157,1.165.239-2.966,1.89-4.2,1.756a4.347,4.347,0,0,0-1.083-.037,14.807,14.807,0,0,0-1.524-1.076,63.237,63.237,0,0,0-9.107-4.124v.516s1.838.68,4.057,1.666a4.827,4.827,0,0,1,.471.388,2.919,2.919,0,0,1,.65.867,1.662,1.662,0,0,1,.052,1.33,3.186,3.186,0,0,1-1.053,1.307,3.54,3.54,0,0,1-1.711.784,2.95,2.95,0,0,1-1.957-.411h-.007a3.255,3.255,0,0,0,.784-.553,1.861,1.861,0,0,0,.545-1.86,1.411,1.411,0,0,0-.672-.822,1.474,1.474,0,0,0-1.1-.09,1.531,1.531,0,0,0-.919.65,1.457,1.457,0,0,0-.127,1.128,3.009,3.009,0,0,0,1.2,1.606,3.355,3.355,0,0,1-.5.179,3.7,3.7,0,0,1-1.472.164,1.5,1.5,0,0,1-.986-.53,1.572,1.572,0,0,1-.3-.672,1.383,1.383,0,0,1-.037-.262,1.713,1.713,0,0,0,.03.262,1.819,1.819,0,0,0,.291.68,1.515,1.515,0,0,0,.994.553,3.518,3.518,0,0,0,1.494-.142,4.36,4.36,0,0,0,.545-.194c.045.03.082.06.12.09a3.211,3.211,0,0,0,2.107.478,3.809,3.809,0,0,0,1.86-.822,3.533,3.533,0,0,0,1.165-1.419,1.965,1.965,0,0,0-.037-1.584,3.09,3.09,0,0,0-.411-.657,25.44,25.44,0,0,1,5.693,3.362,5.267,5.267,0,0,1,1.113,1.7l.53-.254s-.06-.657-1.165-1.718a2.491,2.491,0,0,0,2.264-.142,8.935,8.935,0,0,0,3.138-2.249,13.591,13.591,0,0,1-.9,2.323c-.695,1.442-.374,1.621.351,2.458a4.04,4.04,0,0,0,1.33,1.091s-.388.1.628.12,1.957.53,2.817.09,1.547-.127.979-.979-.814-1.218.381-1.158,1.487-.045,1.083-.5-.4-.822.837-1.173,2.338-1.136,2.122-1.763-.037-1.068-1.4-1.4-2.226-.53-2.107-.657,2.592-.941,2.645-1.225-1.009-.164-.844-.665A7.153,7.153,0,0,1,271.974,146.892Zm-13.38-1.322a2.89,2.89,0,0,1-.486,1.24,5.761,5.761,0,0,0-.291.553,2.246,2.246,0,0,0-.134.516,1.745,1.745,0,0,0-.844-.3.939.939,0,0,0-.284.045l-.187-.1a.933.933,0,0,0-.71-.336h-.015a.51.51,0,0,1,.075-.157.239.239,0,0,1,.172-.082,3.769,3.769,0,0,0,1.278.359.789.789,0,0,0,.6-.224.724.724,0,0,0,.194-.538,4.78,4.78,0,0,1,.09-1.457l.015.015a1,1,0,0,0,.545.3A1.612,1.612,0,0,0,258.593,145.569Zm-12.947,8.868a1.287,1.287,0,0,1,.1-1,1.346,1.346,0,0,1,.814-.59,1.283,1.283,0,0,1,.986.06,1.3,1.3,0,0,1,.635.747,1.765,1.765,0,0,1-.493,1.763,3.032,3.032,0,0,1-.792.568A2.915,2.915,0,0,1,245.646,154.437Zm24.624.344a1.249,1.249,0,0,1,.814-.366h.082c.1,0,.194.007.284.015a4.812,4.812,0,0,1-.964.388,4.174,4.174,0,0,0-.463.157C270.113,154.908,270.2,154.848,270.27,154.781Zm-.941.478a1.652,1.652,0,0,0,.224-.052.859.859,0,0,0-.381.478.9.9,0,0,0,.209.807c-.06,0-.134.007-.217.007-.142,0-.3-.007-.486-.015-.082,0-.157-.007-.232-.007-.374,0-.77.045-.941.366-.187.351.03.717.381,1.248a4.079,4.079,0,0,0-.486.164,3.961,3.961,0,0,1-2.055-.919,4.51,4.51,0,0,0-.381-.508,2.446,2.446,0,0,1-.53-.859,3.474,3.474,0,0,0,1.487.351,2.952,2.952,0,0,0,1.2-.247,1.67,1.67,0,0,0,.837-.777.237.237,0,0,1,.262-.164,2.442,2.442,0,0,1,.418.06,2.521,2.521,0,0,0,.53.075A.609.609,0,0,0,269.329,155.259Zm1.36-5.409a.76.76,0,0,0,.4.329c-.388.172-.911.381-1.225.5a3.225,3.225,0,0,0-.911.411,1.9,1.9,0,0,0-.239.052,6.2,6.2,0,0,0-1.173.538,3.371,3.371,0,0,1-1.524.545,1.48,1.48,0,0,1-.583-.12.883.883,0,0,0-.359-.075.9.9,0,0,0-.807.568h-.03a1.045,1.045,0,0,1-.418-.1.835.835,0,0,0-.329-.067.8.8,0,0,0-.187.022,1.106,1.106,0,0,0-.254-.695,2.058,2.058,0,0,0-.082-.613,7.072,7.072,0,0,0-.433-1.038.911.911,0,0,1-.037-.829,2.947,2.947,0,0,0,.127-.545,2.325,2.325,0,0,0-.314-1.255,2.913,2.913,0,0,1-.194-.478,16.166,16.166,0,0,1-.426-2.122.965.965,0,0,0-.994-.852.685.685,0,0,0-.127.007c.015-.045.037-.09.052-.134a3.7,3.7,0,0,1,.568-1.046c.217-.306.418-.59.6-.852.209-.306.433-.635.613-.859.007.052.007.1.015.142a4.931,4.931,0,0,0,.874,2.645c.642.9.605.994.441,1.457a6.859,6.859,0,0,0-.224.71,2.156,2.156,0,0,0-.075.74,6.8,6.8,0,0,0,0,1.786,6.923,6.923,0,0,1,.037,1.412,1.041,1.041,0,0,0,.269.792,1.022,1.022,0,0,0,.755.344.927.927,0,0,0,.418-.1,1.769,1.769,0,0,0,1.038-1.561c.075-.844.74-1.248,1.517-1.718A6.883,6.883,0,0,0,268.6,147a3.667,3.667,0,0,1,1.061-.62,3.369,3.369,0,0,0,1.479-1.016,3.641,3.641,0,0,1,1.038-.874,4.532,4.532,0,0,0,.926-.725c.217.1.291.187.291.217a7.358,7.358,0,0,1-1.24,2.025c-.164.224-.336.456-.486.672a5.686,5.686,0,0,0-.911,2.249c-.037.164-.067.314-.1.426A.577.577,0,0,0,270.689,149.85ZM253.8,158.8a1.879,1.879,0,0,0-.1-.351.007.007,0,0,0-.007-.007,2.074,2.074,0,0,0-1.838-1.315h-.09a2.065,2.065,0,0,0-1.188,3.758,1.864,1.864,0,0,0,.261.157,1.15,1.15,0,0,0,.142.06c.067.03.142.052.209.075.045.015.082.022.127.037a1.966,1.966,0,0,0,.366.052h.09c.06,0,.12-.015.179-.015s.127-.007.187-.015.142-.037.209-.052a1.153,1.153,0,0,0,.172-.052,1.565,1.565,0,0,0,.194-.1c.052-.03.1-.052.157-.082s.12-.09.179-.134.09-.067.134-.1a1.712,1.712,0,0,0,.157-.172.8.8,0,0,0,.1-.12,1.568,1.568,0,0,0,.127-.209c.022-.045.052-.082.075-.127a2.708,2.708,0,0,0,.1-.262.56.56,0,0,0,.037-.12,2.475,2.475,0,0,0,.06-.411,1.614,1.614,0,0,0-.03-.426A.278.278,0,0,1,253.8,158.8Zm-2.376,1.674a1.323,1.323,0,0,1,.344-2.6h.06a1.313,1.313,0,0,1,.919.426,1.3,1.3,0,0,1,.224.344A4.132,4.132,0,0,1,251.421,160.474Zm2.413.62a2.065,2.065,0,0,0-1.188,3.758,1.867,1.867,0,0,0,.261.157,1.152,1.152,0,0,0,.142.06c.067.03.142.052.209.075.045.015.082.022.127.037a1.967,1.967,0,0,0,.366.052h.09c.06,0,.12-.015.179-.015s.127-.007.187-.015.142-.037.209-.052a1.154,1.154,0,0,0,.172-.052,1.57,1.57,0,0,0,.194-.1c.052-.03.1-.052.157-.082s.12-.09.179-.134.09-.067.134-.1a1.707,1.707,0,0,0,.157-.172.8.8,0,0,0,.1-.12,1.562,1.562,0,0,0,.127-.209c.022-.045.052-.082.075-.127a2.7,2.7,0,0,0,.1-.261.559.559,0,0,0,.037-.12,2.477,2.477,0,0,0,.06-.411,1.613,1.613,0,0,0-.03-.426.108.108,0,0,0-.015-.052,1.88,1.88,0,0,0-.1-.351.007.007,0,0,0-.007-.007,2.074,2.074,0,0,0-1.838-1.315A.189.189,0,0,0,253.834,161.094Zm1.2,1.517a4.164,4.164,0,0,1-1.539,1.83,1.323,1.323,0,0,1,.344-2.6h.06a1.313,1.313,0,0,1,.919.426A1.4,1.4,0,0,1,255.03,162.61Zm3.474-1.517a2.065,2.065,0,0,0-1.188,3.758,1.867,1.867,0,0,0,.261.157,1.151,1.151,0,0,0,.142.06c.067.03.142.052.209.075.045.015.082.022.127.037a1.966,1.966,0,0,0,.366.052h.09c.06,0,.12-.015.179-.015s.127-.007.187-.015c.075-.015.142-.037.209-.052a1.156,1.156,0,0,0,.172-.052,1.569,1.569,0,0,0,.194-.1c.052-.03.1-.052.157-.082s.12-.09.179-.134.09-.067.134-.1a1.712,1.712,0,0,0,.157-.172.8.8,0,0,0,.1-.12,1.563,1.563,0,0,0,.127-.209c.022-.045.052-.082.075-.127a2.706,2.706,0,0,0,.1-.261.559.559,0,0,0,.037-.12,2.477,2.477,0,0,0,.06-.411,1.615,1.615,0,0,0-.03-.426.108.108,0,0,0-.015-.052,1.878,1.878,0,0,0-.1-.351.007.007,0,0,0-.007-.007,2.074,2.074,0,0,0-1.838-1.315A.19.19,0,0,0,258.5,161.094Zm1.2,1.517a4.164,4.164,0,0,1-1.539,1.83,1.323,1.323,0,0,1,.344-2.6h.06a1.313,1.313,0,0,1,.919.426A1.4,1.4,0,0,1,259.7,162.61Zm-1.233-3.81a1.879,1.879,0,0,0-.1-.351.007.007,0,0,0-.007-.007,2.074,2.074,0,0,0-1.838-1.315h-.09a2.065,2.065,0,0,0-1.188,3.758,1.863,1.863,0,0,0,.262.157,1.15,1.15,0,0,0,.142.06c.067.03.142.052.209.075.045.015.082.022.127.037a1.967,1.967,0,0,0,.366.052h.09c.06,0,.12-.015.179-.015s.127-.007.187-.015.142-.037.209-.052a1.154,1.154,0,0,0,.172-.052,1.567,1.567,0,0,0,.194-.1c.052-.03.1-.052.157-.082s.12-.09.179-.134.09-.067.134-.1a1.709,1.709,0,0,0,.157-.172.8.8,0,0,0,.1-.12,1.564,1.564,0,0,0,.127-.209c.022-.045.052-.082.075-.127a2.7,2.7,0,0,0,.1-.262.559.559,0,0,0,.037-.12,2.477,2.477,0,0,0,.06-.411,1.615,1.615,0,0,0-.03-.426A.277.277,0,0,1,258.466,158.8Zm-2.376,1.674a1.323,1.323,0,0,1,.344-2.6h.06a1.313,1.313,0,0,1,.919.426,1.3,1.3,0,0,1,.224.344A4.18,4.18,0,0,1,256.091,160.474Zm.71,16.974c.075-.015.142-.037.209-.052a1.156,1.156,0,0,0,.172-.052,1.569,1.569,0,0,0,.194-.1c.052-.03.1-.052.157-.082s.12-.09.179-.134.09-.067.134-.1a1.707,1.707,0,0,0,.157-.172.8.8,0,0,0,.1-.12,1.563,1.563,0,0,0,.127-.209c.022-.045.052-.082.075-.127a2.692,2.692,0,0,0,.1-.261.558.558,0,0,0,.037-.12,2.473,2.473,0,0,0,.06-.411,1.613,1.613,0,0,0-.03-.426.108.108,0,0,0-.015-.052,1.88,1.88,0,0,0-.1-.351.007.007,0,0,0-.007-.007,2.074,2.074,0,0,0-1.838-1.315h-.09a2.065,2.065,0,0,0-1.188,3.758,1.865,1.865,0,0,0,.261.157,1.153,1.153,0,0,0,.142.06c.067.03.142.052.209.075.045.015.082.022.127.037a1.967,1.967,0,0,0,.366.052h.09c.06,0,.12-.015.179-.015S256.74,177.455,256.8,177.448Zm-.71-.762a1.323,1.323,0,0,1,.344-2.6h.06a1.313,1.313,0,0,1,.919.426,1.3,1.3,0,0,1,.224.344A4.18,4.18,0,0,1,256.091,176.686Zm-3.96-7.344a1.709,1.709,0,0,0,.209-.06,1.153,1.153,0,0,0,.172-.052,1.568,1.568,0,0,0,.194-.1c.052-.03.1-.052.157-.082s.12-.09.179-.134.09-.067.134-.1a1.71,1.71,0,0,0,.157-.172.8.8,0,0,0,.1-.12,1.565,1.565,0,0,0,.127-.209c.022-.045.052-.082.075-.127a2.708,2.708,0,0,0,.1-.261.559.559,0,0,0,.037-.12,2.474,2.474,0,0,0,.06-.411,1.613,1.613,0,0,0-.03-.426.108.108,0,0,0-.015-.052,1.879,1.879,0,0,0-.1-.351.007.007,0,0,0-.007-.007,2.074,2.074,0,0,0-1.838-1.315h-.09A2.065,2.065,0,0,0,250.569,169a1.867,1.867,0,0,0,.261.157,1.157,1.157,0,0,0,.142.06c.067.03.142.052.209.075.045.015.082.022.127.037a1.967,1.967,0,0,0,.366.052h.09c.06,0,.12-.015.179-.015A1.811,1.811,0,0,1,252.131,169.342Zm-.71-.762a1.323,1.323,0,0,1,.344-2.6h.06a1.313,1.313,0,0,1,.919.426,1.3,1.3,0,0,1,.224.344A4.132,4.132,0,0,1,251.421,168.58Zm3.168,4.617a1.572,1.572,0,0,0,.194-.1c.052-.03.1-.052.157-.082s.12-.09.179-.134.09-.067.134-.1a1.71,1.71,0,0,0,.157-.172.8.8,0,0,0,.1-.12,1.568,1.568,0,0,0,.127-.209c.022-.045.052-.082.075-.127a2.7,2.7,0,0,0,.1-.261.56.56,0,0,0,.037-.12,2.477,2.477,0,0,0,.06-.411,1.613,1.613,0,0,0-.03-.426.108.108,0,0,0-.015-.052,1.878,1.878,0,0,0-.1-.351.007.007,0,0,0-.007-.007,2.074,2.074,0,0,0-1.838-1.315h-.09a2.065,2.065,0,0,0-1.188,3.758,1.865,1.865,0,0,0,.261.157,1.15,1.15,0,0,0,.142.06c.067.03.142.052.209.075.045.015.082.022.127.037a1.965,1.965,0,0,0,.366.052h.09c.06,0,.12-.015.179-.015s.127-.007.187-.015a1.711,1.711,0,0,0,.209-.06C254.477,173.234,254.537,173.219,254.589,173.2Zm-1.1-.65a1.323,1.323,0,0,1,.344-2.6h.06a1.313,1.313,0,0,1,.919.426,1.3,1.3,0,0,1,.224.344A4.132,4.132,0,0,1,253.491,172.547Zm35.98-7.516c.045-1.27,3.8-2.279,5.289-3.833a6.31,6.31,0,0,0,2.122-5.394c-.187-3.362-2.249-13.373-2.249-13.373H283.105s-2.055,10.019-2.249,13.373a6.406,6.406,0,0,0,2.122,5.394c1.487,1.569,5.245,2.563,5.289,3.833s.06,4.475.06,4.475h-.007v12.589h-5.237v.657h11.55v-.657H289.4V169.5C289.4,169.5,289.418,166.294,289.471,165.031Zm-4.654-13.164c-.329,3.96.037,8.233,2.607,10.243-2.794-1.263-4.729-2.1-4.139-10.243h-.822l1.24-8.749H294.1l1.158,8.749Z" transform="matrix(1, -0.017, 0.017, 1, -245.265, -134.713)" fill="none" stroke="#707070" stroke-width="1" opacity="0.44"/>
</svg>
