<svg xmlns="http://www.w3.org/2000/svg" width="49.395" height="58.745" viewBox="0 0 49.395 58.745">
  <path id="Path_831" data-name="Path 831" d="M405.64,55.83H368.3c-.09-.87-.19-1.75-.32-2.66h37.98C405.83,54.08,405.73,54.97,405.64,55.83Zm9.79,12.82a7.763,7.763,0,0,1-6.07,3.8,13.555,13.555,0,0,1-1.65.09,31.435,31.435,0,0,1-4.64-.39c-1.32,2.19-3.55,3.75-7.43,4.61v1.82H378.32V76.76c-9.95-2.19-9.03-9.02-9.85-19.17H405.5c-.02.24-.04.48-.05.72,3.69-.45,7.92-.06,9.86,3.43A6.962,6.962,0,0,1,415.43,68.65ZM413.2,62.6c-1.4-2.11-4.81-2.69-7.94-1.9a48.837,48.837,0,0,1-.94,8.26,14.7,14.7,0,0,0,4.19.54c1.41-.08,3.34-.19,4.67-1.82A4.873,4.873,0,0,0,413.2,62.6ZM378.19,35.79c-2.62,6.19-1.64,11.42.75,14.4-.44-6.14-.39-8.75,2.06-13.9s-2.17-8.55-5.3-9.97A7.54,7.54,0,0,1,378.19,35.79Zm14.05-.38c-2.62,6.19-1.64,11.42.75,14.4-.44-6.14-.39-8.75,2.06-13.9s-2.17-8.55-5.3-9.97A7.528,7.528,0,0,1,392.24,35.41Zm-7-5.15c-2.62,6.19-1.64,11.42.75,14.4-.44-6.14-.39-8.75,2.06-13.9s-2.17-8.55-5.3-9.97A7.528,7.528,0,0,1,385.24,30.26Z" transform="translate(-367.403 -20.335)" fill="none" stroke="#707070" stroke-width="1" opacity="0.44"/>
</svg>
