<svg xmlns="http://www.w3.org/2000/svg" width="64.05" height="73.56" viewBox="0 0 64.05 73.56">
  <path id="Path_835" data-name="Path 835" d="M374.75,144.58h-.55l2.77-6.58a10.312,10.312,0,0,1,3.5,3.38C379.26,142.02,376.24,143.76,374.75,144.58Zm6.29-2.34-5.47,2.17h5.8A12.982,12.982,0,0,0,381.04,142.24ZM392,162.32h-7.74l.37,6.63h5.72Zm.41,6.63h4.22l1.41-6.63h-3.97Zm-18.9-21.79h-.21c-.49,1.7-1.17,4.02-1.5,5.11a8.393,8.393,0,0,0,2.48.27Zm-2.73,4.89,2.42-5.59.11-.93c-1.33.73-4.7,2.43-6.02,3.14A10.321,10.321,0,0,0,370.78,152.05Zm3.1,1.17a8.2,8.2,0,1,1,8.17-8.81h.89a9.075,9.075,0,1,0-9.05,9.69,3.229,3.229,0,0,0,.7-.03l-.11-.87A4,4,0,0,1,373.88,153.22Zm-7.16-5.42,6.48-2.57.24-.28c-1.4-.4-5.33-1.57-6.8-2.01A10.282,10.282,0,0,0,366.72,147.8Zm6.91-3.14c-.71-1.28-2.67-4.88-3.39-6.23a10.312,10.312,0,0,0-3.38,3.5l6.77,2.9v-.17Zm2.33-6.88a10.282,10.282,0,0,0-4.86.08l2.67,6.78h.2C374.36,143.3,375.51,139.27,375.96,137.78Zm14.63,51.02v6.88h7.32v1.34H378.57v-1.34h7.32V188.8h-3.92l-8.09-43.27H402.6l-8.09,43.27Zm3.08-1,7.72-41.27H375.08l7.72,41.27h4.09v8.22h2.7V187.8Zm-1.36-18.48-4.1,16.38h-2.06l4.1-16.38h-5.6l.91,16.63h7.46l3.53-16.63Zm-12.38,0,3.19,15-2.34-15Zm13.48-12.62h-9.46l.29,5.25h7.86Zm19.54-32.56c-4.26-1.07-7.5-.88-9.88.59-3.67,2.24-4.76,6.96-6.03,12.42-.22.96-.45,1.94-.7,2.94l-1.22,4.89h2.06l1.1-4.41c.25-1.01.48-2,.71-2.97,1.17-5.02,2.17-9.36,5.13-11.16,1.91-1.17,4.64-1.28,8.36-.35l15.89,3.98.49-1.94Zm-18.79,37.81h3.96l1.12-5.25h-3.76Zm2.47-14.84h-2.06l-2.21,8.85h2.06Zm-16.96,15.21h-1.23l1.41,6.63h.86Zm-.88-5.62h-1.55l1.12,5.25h1.25Z" transform="translate(-364.81 -123.46)" fill="#333" opacity="0.44"/>
</svg>
