<svg xmlns="http://www.w3.org/2000/svg" width="81.56" height="58.54" viewBox="0 0 81.56 58.54">
  <path id="Path_849" data-name="Path 849" d="M68.84,354.81a28.77,28.77,0,1,0,28.77,28.77A28.769,28.769,0,0,0,68.84,354.81Zm20.95,23.51c.08.3.17.6.23.91.09.44.14.9.21,1.35.04.27.09.53.12.79.07.73.11,1.46.11,2.21s-.04,1.48-.11,2.21c-.03.27-.08.53-.12.79-.06.45-.12.91-.21,1.35-.06.31-.16.61-.23.91-.1.39-.18.78-.3,1.16-.1.33-.24.65-.36.98s-.23.68-.37,1c-.15.34-.32.67-.48,1-.14.29-.27.6-.43.88-.19.35-.41.68-.62,1.02-.15.25-.29.51-.46.75-.24.36-.51.69-.77,1.03-.16.21-.31.43-.47.63-.29.35-.6.67-.91,1-.16.17-.31.36-.48.53-.33.33-.69.64-1.04.95-.16.14-.32.3-.48.44-.38.31-.77.59-1.17.88-.16.12-.32.25-.49.36-.41.28-.84.53-1.27.78-.17.1-.33.21-.5.3-.44.24-.9.45-1.36.66-.18.08-.34.17-.52.25-.46.2-.94.36-1.42.53-.19.07-.37.14-.56.2-.48.15-.97.27-1.46.38-.2.05-.4.11-.61.16-.48.1-.97.17-1.46.23-.23.03-.45.08-.68.1-.48.05-.96.06-1.44.08-.24.01-.47.04-.71.04h0c-.05,0-.1.01-.16.01a21.62,21.62,0,1,1,0-43.24c.05,0,.1.01.16.01h0c.19,0,.38.03.58.03.53.02,1.07.04,1.59.09.19.02.37.06.56.08.53.07,1.06.14,1.58.25.17.04.33.09.5.13.52.12,1.05.25,1.56.41.16.05.31.12.47.17.51.17,1.02.35,1.51.56.15.06.3.15.45.21.48.22.97.44,1.43.7.15.08.29.18.44.27.45.26.9.52,1.33.82.15.1.29.22.44.33.41.29.82.59,1.21.91.16.13.3.28.45.41.37.32.73.64,1.08.98.16.16.3.34.46.51.31.34.63.67.93,1.03.16.2.3.41.46.61.26.35.54.69.78,1.05.16.24.3.5.45.74.21.34.43.68.63,1.04.15.29.28.58.42.88.16.34.34.66.48,1.01.14.33.25.67.37,1s.25.64.36.98C89.61,377.54,89.7,377.94,89.79,378.32Zm-.61,5.26a20.34,20.34,0,1,1-20.34-20.34A20.338,20.338,0,0,1,89.18,383.58Zm18.64-22.46v47.54a2.712,2.712,0,0,1-1.89,2.64v.01a2.311,2.311,0,0,1-.64.1,2.563,2.563,0,0,1-2.53-2.75c.49-4.53,3.11-14.27,1.76-18.16-.77-2.22-3.6-6.24-3.6-12.91,0-12.41,2.9-16.84,4.92-17.88a.689.689,0,0,0,.08-.03A1.421,1.421,0,0,1,107.82,361.12Zm-71.36-1.28a125.836,125.836,0,0,1,1.16,14.75c0,4.58-.93,4.52-3.65,5.61l1,28.59a2.651,2.651,0,0,1-2.53,2.75,2.2,2.2,0,0,1-.37-.04v-.01a2.673,2.673,0,0,1-2.16-2.7l1-28.59c-2.71-1.08-3.65-1.03-3.65-5.61a124.476,124.476,0,0,1,1.15-14.75h.64l.15,16.17h1.33l.33-16.17h.63l.29,16.17h1.33l.32-16.17h.69l.3,16.17h1.33l.11-16.17h.6Z" transform="translate(-26.76 -354.31)" fill="none" stroke="#333" stroke-width="1" opacity="0.44"/>
</svg>
