<svg xmlns="http://www.w3.org/2000/svg" width="86.428" height="43.144" viewBox="0 0 86.428 43.144">
  <path id="Path_839" data-name="Path 839" d="M269.44,308.9a1,1,0,0,1-1.95.43l-3.69-16.54H249.34l-4.68,16.59a1.011,1.011,0,0,1-.96.73.842.842,0,0,1-.27-.04,1,1,0,0,1-.69-1.23l4.81-17.05-4.81-17.57a1.011,1.011,0,0,1-.03-.17l-.54-5.82a1,1,0,0,1,1.99-.19l.54,5.73,4.66,17.02h15.26a1,1,0,0,1,.97.78Zm-22.11-27.76c-.51-2.26-1.03-4.62-1.47-6.65.76-5.63-.51-6.75-1.19-6.9a.17.17,0,0,0-.07-.01l.51,5.45Zm9.88,8.03c-2.6,0-5.73.12-7.08.88h13.22C262.26,289.47,260.18,289.17,257.21,289.17Zm70.83-15.11.55-5.82a1,1,0,1,0-1.99-.19l-.54,5.73L321.4,290.8H306.14a1.007,1.007,0,0,0-.98.78L301.3,308.9a1,1,0,0,0,1.95.43l3.69-16.54h14.47l4.68,16.59a1.011,1.011,0,0,0,.96.73.842.842,0,0,0,.27-.04,1,1,0,0,0,.69-1.23l-4.81-17.05,4.81-17.57C328.02,274.17,328.03,274.12,328.04,274.06Zm-2.42-1.03.51-5.45c-.03,0-.04.01-.07.01-.68.15-1.95,1.28-1.19,6.9-.45,2.03-.96,4.38-1.48,6.65Zm-5.01,17.02c-1.35-.76-4.48-.88-7.08-.88-2.98,0-5.05.3-6.14.88Zm-24.48,19.1-8.93-5.51a2.966,2.966,0,0,0-.6-.27l10.3-19.66H273.85l10.3,19.66a3.054,3.054,0,0,0-.61.27l-8.93,5.51c-1.01.62-1.14,1.13-.3,1.13a7.908,7.908,0,0,0,3.36-1.13l5.87-3.63a3.833,3.833,0,0,1,3.66,0l5.88,3.63a7.908,7.908,0,0,0,3.36,1.13C297.27,310.28,297.13,309.77,296.13,309.15Zm-36.96-26.36h52.4a1.088,1.088,0,0,0,1.08-1.08v-.07a1.088,1.088,0,0,0-1.08-1.08h-52.4a1.082,1.082,0,0,0-1.08,1.08v.07A1.082,1.082,0,0,0,259.17,282.79Z" transform="translate(-242.166 -267.136)" fill="#333" opacity="0.44"/>
</svg>
