<svg xmlns="http://www.w3.org/2000/svg" width="83.629" height="64.408" viewBox="0 0 83.629 64.408">
  <path id="Path_825" data-name="Path 825" d="M207.32,75.67a2.893,2.893,0,0,1-3,2.75H137.49a2.76,2.76,0,1,1,0-5.5h66.83A2.893,2.893,0,0,1,207.32,75.67ZM174.41,41.09a3.5,3.5,0,0,0-7-.02,27.789,27.789,0,0,1,3.42-.21A28.322,28.322,0,0,1,174.41,41.09Zm27.23,29.4H140.18a30.826,30.826,0,0,1,61.46,0Zm-34.25-25.7a31.926,31.926,0,0,0-22.37,22.83h6.51S155.14,51.71,167.39,44.79Z" transform="translate(-138.65 36.075) rotate(-20)" fill="none" stroke="#707070" stroke-width="1" opacity="0.44"/>
</svg>
