<svg xmlns="http://www.w3.org/2000/svg" width="65.5" height="61.89" viewBox="0 0 65.5 61.89">
  <path id="Path_833" data-name="Path 833" d="M185.77,154.84c-.52-.72.47-2.34,2.23-3.61s3.6-1.72,4.13-.99-.47,2.34-2.23,3.61S186.3,155.56,185.77,154.84Zm12.93,18.09c1.75-1.27,2.75-2.89,2.23-3.61s-2.37-.28-4.13.99-2.75,2.89-2.23,3.61S196.95,174.2,198.7,172.93ZM175,176.74a6.624,6.624,0,0,0-1.54-.16l1.62,3.43a2.226,2.226,0,0,0,1.02-1.14,1.748,1.748,0,0,0-.13-1.35A1.33,1.33,0,0,0,175,176.74Zm-5.91-5.24a1.7,1.7,0,0,0,.14,1.18,1.356,1.356,0,0,0,.92.76,5.911,5.911,0,0,0,1.48.19l-1.5-3.17A1.825,1.825,0,0,0,169.09,171.5Zm-18.04,23.13c.22.87,2.1,1.13,4.2.6s3.62-1.67,3.4-2.54-2.1-1.13-4.2-.6S150.83,193.76,151.05,194.63Zm-3.17-4.39c-.46-.81-.9-1.58-1.32-2.34-6.03-6.46-8.23-9.05-8.23-9.05s.78-.67,2.12-1.98c-.57-1.06-.89-1.65-.89-1.65s1.09-.56,3.01-1.72a2.457,2.457,0,0,0-.07-.24s.33-.09.94-.29c.58-.35,1.21-.75,1.9-1.19a173.528,173.528,0,0,0,24.96-36.02c3.03,2.68,5.98,5.17,8.65,7.37.95-1.04,1.9-2.09,2.86-3.18,2.3,3.29,4.56,6.38,6.64,9.14,1.21-.88,2.42-1.77,3.64-2.7,5.78,13.27,11.74,24.31,11.74,24.31s-28.79,23-53.46,26.95C149.44,194.92,148.61,192.46,147.88,190.24Zm30.5-14.2a3.872,3.872,0,0,0-1.02-1.37,4.093,4.093,0,0,0-1.3-.73,5.557,5.557,0,0,0-1.47-.29c-.52-.03-1.02-.05-1.51-.04l-1.73-3.66a7.68,7.68,0,0,1,1.26-.31,8.131,8.131,0,0,1,.98-.08l-.31-2.48a9.916,9.916,0,0,0-1.38.16,9.139,9.139,0,0,0-1.61.48l-.8-1.69-2.03.96.84,1.77a4.7,4.7,0,0,0-1.84,2.34,4.023,4.023,0,0,0,.34,3.02,4.192,4.192,0,0,0,1.01,1.41,3.746,3.746,0,0,0,1.28.76,5.351,5.351,0,0,0,1.44.3c.5.03.99.05,1.48.04l1.87,3.95a7.933,7.933,0,0,1-1.64.44,5.075,5.075,0,0,1-1.18.06l.29,2.59a6.159,6.159,0,0,0,1.52-.16,11.213,11.213,0,0,0,2.06-.68l.8,1.69,2.03-.96-.86-1.81a4.711,4.711,0,0,0,1.87-2.47A4.379,4.379,0,0,0,178.38,176.04Zm13.31-28.08c-23.04,17.35-43.38,24.49-47.95,25.97h0c.67,2.31,2.72,9.1,7.31,22.6,8.79-1.55,18.12-5.52,26.42-9.93-5.25,1.81-11.38-1.28-14.01-7.21-2.75-6.22-.61-13.2,4.79-15.59s12,.71,14.76,6.93c2.38,5.37,1.1,11.31-2.78,14.37a191.517,191.517,0,0,0,22.34-14.66C201.18,167.82,196.41,158.67,191.69,147.96ZM162.6,164.91c.65-.33,1.31-.66,1.98-1.01l-.6-.81-1.75,1.31Zm19.13-23.38a178.132,178.132,0,0,1-34.34,30.07c2.78-1.03,6.63-2.59,11.27-4.77a9.461,9.461,0,0,1,3.69-5.63,9.88,9.88,0,0,1,9.06-1.04,191.552,191.552,0,0,0,16.26-10.49C185.8,147.18,183.78,144.44,181.73,141.53Zm-22.81,20.43-.24-.2-.94,1.13C158.14,162.59,158.53,162.28,158.92,161.96Zm-10.55,7.84c1.84-1.25,3.92-2.72,6.18-4.43a9.105,9.105,0,0,1,2.18-5.02,9.593,9.593,0,0,1,7.82-3.11,184.409,184.409,0,0,0,13.78-13.41c-2.41-1.98-5.03-4.19-7.73-6.56A177.729,177.729,0,0,1,148.37,169.8Zm-7.51,5.82c.72,1.37,2.41,4.53,5.48,9.97-1.16-3.55-2.01-6.24-2.61-8.18-.82.07-1.44-.08-1.64-.5-.23-.48.16-1.18.92-1.86-.06-.22-.12-.41-.17-.59C142.02,174.96,141.34,175.36,140.86,175.62Zm3.72,8.75c-.89-1.6-1.68-3.03-2.36-4.26a1.132,1.132,0,0,1-1.09-.24c-.26-.32-.18-.87.15-1.49-.13-.23-.24-.45-.36-.65-.51.49-.94.91-1.26,1.2C140.42,179.81,141.99,181.57,144.58,184.37Zm.13-8.89c.22.87,2.1,1.13,4.2.6s3.62-1.67,3.4-2.54-2.1-1.13-4.2-.6S144.49,174.61,144.71,175.48Zm36.44-27.97c1.43-1.55,2.07-3.29,1.43-3.88s-2.32.19-3.75,1.74-2.07,3.29-1.43,3.88S179.72,149.06,181.15,147.51Zm-12.9-1.93c.74.41,2.16-.71,3.16-2.51s1.21-3.6.47-4.01-2.16.71-3.16,2.51S167.5,145.17,168.25,145.58Z" transform="translate(-138.33 -135.76)" fill="#333" opacity="0.44"/>
</svg>
