<svg xmlns="http://www.w3.org/2000/svg" width="75.774" height="75.295" viewBox="0 0 75.774 75.295">
  <path id="Path_847" data-name="Path 847" d="M202.53,379.97l1,28.59a2.651,2.651,0,0,1-2.53,2.75.677.677,0,0,1-.14-.02c-.07-.01-.13-.01-.2-.02v-.01a2.676,2.676,0,0,1-2.19-2.71l1-28.59c-2.71-1.08-5.65-2.99-5.65-7.57,0-5.69,3.77-12.77,6.83-13.27v-.01l.19-.03h.01a.675.675,0,0,1,.14-.02c3.11,0,7.17,7.43,7.17,13.33C208.18,376.98,205.25,378.89,202.53,379.97Zm-43.58-20.39a.689.689,0,0,0-.08.03c-2.01,1.04-4.92,5.47-4.92,17.88,0,6.67,2.83,10.69,3.6,12.91,1.35,3.88-1.28,13.63-1.76,18.16a2.557,2.557,0,0,0,2.53,2.75,2.311,2.311,0,0,0,.64-.1v-.01a2.712,2.712,0,0,0,1.89-2.64V361.02A1.433,1.433,0,0,0,158.95,359.58Zm23.41.03-.11,16.17h-1.33l-.3-16.17h-.69l-.32,16.17h-1.33l-.29-16.17h-.63l-.33,16.17H175.7l-.15-16.17h-.64a126.624,126.624,0,0,0-1.15,14.75c0,4.58.93,4.52,3.65,5.61l-1,28.59a2.69,2.69,0,0,0,2.08,2.69v.02a2.215,2.215,0,0,0,.45.05,2.657,2.657,0,0,0,2.53-2.75l-1-28.59c2.71-1.08,3.65-1.03,3.65-5.61a125.837,125.837,0,0,0-1.16-14.75h-.6Z" transform="matrix(0.819, 0.574, -0.574, 0.819, 110.511, -381.73)" fill="none" stroke="#333" stroke-width="1" opacity="0.44"/>
</svg>
