<svg xmlns="http://www.w3.org/2000/svg" width="59.182" height="59.218" viewBox="0 0 59.182 59.218">
  <g id="restaurant" transform="translate(-0.153)">
    <g id="Group_514" data-name="Group 514" transform="translate(3.447)">
      <g id="Group_513" data-name="Group 513">
        <path id="Path_669" data-name="Path 669" d="M83,50.35l-23.22-23.22L32.652,0h-2.12L30.1,1.1a19.45,19.45,0,0,0-1.412,8.588,12.129,12.129,0,0,0,3.4,7.747L53.265,38.613l2.793-2.793L75.638,57.713A5.207,5.207,0,0,0,83,50.35Z" transform="translate(-28.636)" fill="#855c00"/>
      </g>
    </g>
    <g id="Group_516" data-name="Group 516" transform="translate(0.153 33.708)">
      <g id="Group_515" data-name="Group 515" transform="translate(0)">
        <path id="Path_670" data-name="Path 670" d="M18.262,291.442,1.676,308.029a5.207,5.207,0,0,0,7.363,7.363l16.587-16.587Z" transform="translate(-0.153 -291.442)" fill="#855c00"/>
      </g>
    </g>
    <g id="Group_518" data-name="Group 518" transform="translate(31.867 0.042)">
      <g id="Group_517" data-name="Group 517">
        <path id="Path_671" data-name="Path 671" d="M299.325,10.179l-9.409,9.409-2.455-2.455,9.409-9.409L294.416,5.27l-9.409,9.409-2.455-2.455,9.409-9.409L289.507.361,277.234,12.634a8.663,8.663,0,0,0-2.525,5.614,5,5,0,0,1-.356,1.567l7.972,7.972a5,5,0,0,1,1.567-.356,8.661,8.661,0,0,0,5.613-2.524l12.273-12.273Z" transform="translate(-274.354 -0.361)" fill="#855c00"/>
      </g>
    </g>
  </g>
</svg>
