<svg height="512" viewBox="0 0 60 60" width="512" xmlns="http://www.w3.org/2000/svg"><g id="Page-1" fill="none" fill-rule="evenodd"><g id="038---Chairs-and-Table" fill="rgb(0,0,0)" fill-rule="nonzero"><path id="Shape" d="m34.325 51.111c3.7109232-1.5934864 6.2526599-5.0895256 6.624-9.111h4.551c1.9329966 0 3.5-1.5670034 3.5-3.5s-1.5670034-3.5-3.5-3.5h-14.5v-8.012c1.0572867.8027037 2.3913884 1.1498673 3.7058346.9643426 1.3144463-.1855247 2.5003469-.8883687 3.2941654-1.9523426.9442719 1.2590292 2.4262135 2 4 2s3.0557281-.7409708 4-2c1.2912912 1.7217216 3.5394281 2.4239867 5.5811388 1.7434165s3.4188612-2.5912645 3.4188612-4.7434165c0-12.676-11.2-22.99-24.98-23h-.035c-13.778.008-24.985 10.323-24.985 23 0 2.152152 1.37715047 4.0628463 3.41886117 4.7434165 2.04171073.6805702 4.28984763-.0216949 5.58113883-1.7434165.9442719 1.2590292 2.4262135 2 4 2s3.0557281-.7409708 4-2c.7933694 1.0644378 1.9790524 1.7678741 3.2935229 1.9539656 1.3144706.1860915 2.6488189-.1605804 3.7064771-.9629656v8.009h-14.5c-1.9329966 0-3.5 1.5670034-3.5 3.5s1.5670034 3.5 3.5 3.5h4.551c.3713401 4.0214744 2.9130768 7.5175136 6.624 9.111-2.8806989 1.5800316-4.6723612 4.6034378-4.675 7.889 0 .5522847.4477153 1 1 1h16c.5522847 0 1-.4477153 1-1-.0026388-3.2855622-1.7943011-6.3089684-4.675-7.889zm-.325-25.111c-1.6568542 0-3-1.3431458-3-3v-19.366c2.252 2.922 6 9.29 6 19.366 0 1.6568542-1.3431458 3-3 3zm8 0c-1.6568542 0-3-1.3431458-3-3 .1468382-6.4770399-1.5448506-12.8630872-4.879-18.418 4.545 3.19 10.879 9.275 10.879 18.418 0 1.6568542-1.3431458 3-3 3zm11-3c-.0000001 1.6568542-1.3431458 2.9999999-3 2.9999999s-2.9999999-1.3431457-3-2.9999999c0-10.638-7.523-17.339-12.447-20.585 10.509 1.935 18.447 10.428 18.447 20.585zm-43 3c-1.65685425 0-3-1.3431458-3-3 0-10.157 7.938-18.65 18.447-20.585-4.924 3.246-12.447 9.947-12.447 20.585 0 1.6568542-1.3431458 3-3 3zm8 0c-1.6568542 0-3-1.3431458-3-3 0-9.12 6.326-15.207 10.87-18.406-3.3277378 5.5528303-5.016124 11.9340288-4.87 18.406 0 .7956495-.3160705 1.5587112-.8786797 2.1213203-.5626091.5626092-1.3256708.8786797-2.1213203.8786797zm8 0c-1.6568542 0-3-1.3431458-3-3 0-10.076 3.748-16.444 6-19.366v19.366c0 1.6568542-1.3431458 3-3 3zm-13 12.5c0-.8284271.6715729-1.5 1.5-1.5h31c.8284271 0 1.5.6715729 1.5 1.5s-.6715729 1.5-1.5 1.5h-31c-.8284271 0-1.5-.6715729-1.5-1.5zm8.059 3.5h17.882c-.5227105 4.5425323-4.3684924 7.9711565-8.941 7.9711565s-8.4182895-3.4286242-8.941-7.9711565zm2.012 16c.4946494-3.4465051 3.4471793-6.0055358 6.929-6.0055358s6.4343506 2.5590307 6.929 6.0055358z"/><path id="Shape" d="m18 48c0-1.6568542-1.3431458-3-3-3h-9v-13c0-1.6568542-1.34314575-3-3-3s-3 1.3431458-3 3v16c.00468314 1.5076892 1.1297347 2.7766925 2.626 2.962l-2.574 7.722c-.11289594.3394023-.0361471.7132522.20133596.9807241s.59962102.3879305.95000001.3160001c.35037899-.0719305.63576811-.3253219.74866403-.6647242l2.768-8.316h8.56l2.772 8.316c.1128959.3394023.398285.5927937.748664.6647242.350379.0719304.712517-.0485281.95-.316.2374831-.2674719.3142319-.6413219.201336-.9807242l-2.574-7.722c1.4946789-.1871553 2.6175718-1.4556559 2.622-2.962zm-16-16c0-.5522847.44771525-1 1-1s1 .4477153 1 1v13h-2zm13 17h-12c-.55228475 0-1-.4477153-1-1v-1h13c.5522847 0 1 .4477153 1 1s-.4477153 1-1 1z"/><path id="Shape" d="m57 29c-1.6568542 0-3 1.3431458-3 3v13h-9c-1.5843292-.0063717-2.8989713 1.2234201-2.9981631 2.804654-.0991918 1.5812338 1.0514579 2.9656749 2.6241631 3.157346l-2.574 7.722c-.1128959.3394023-.0361471.7132523.201336.9807242.237483.2674719.599621.3879304.95.316.350379-.0719305.6357681-.3253219.748664-.6647242l2.768-8.316h8.56l2.772 8.316c.1128959.3394023.398285.5927937.748664.6647242.350379.0719304.712517-.0485281.95-.316.2374831-.2674719.3142319-.6413219.201336-.9807242l-2.574-7.722c1.4946789-.1871553 2.6175718-1.4556559 2.622-2.962v-16c0-1.6568542-1.3431458-3-3-3zm-1 3c0-.5522847.4477153-1 1-1s1 .4477153 1 1v13h-2zm2 16c0 .5522847-.4477153 1-1 1h-12c-.5522847 0-1-.4477153-1-1s.4477153-1 1-1h13z"/></g></g></svg>