<svg id="Layer_5" enable-background="new 0 0 64 64" height="512" viewBox="0 0 64 64" width="512" xmlns="http://www.w3.org/2000/svg"><path d="m42.1 44.589c.6.319.74.391 1.14.407.337-.449.712-.881 1.096-1.293.855-.918 1.664-1.784 1.664-2.703s-.809-1.785-1.664-2.702c-.564-.605-1.148-1.23-1.545-1.934-.411-.729-.66-1.58-.9-2.403-.187-.638-.385-1.274-.639-1.798l-2.778 2.778c2.15 1.224 3.526 3.492 3.526 6.059 0 1.113-.265 2.181-.757 3.152.323.155.612.306.857.437z"/><path d="m50 45.04c-2.015.167-3.236.818-4.162 1.312-.864.461-1.258.648-2.34.648s-1.476-.187-2.338-.646c-1.071-.572-2.536-1.354-5.164-1.354-2.626 0-4.091.782-5.16 1.353-.863.46-1.256.647-2.337.647-.801 0-1.225-.103-1.741-.344l-1.488 1.488c.867.461 1.635.856 3.229.856 1.625 0 2.391-.409 3.278-.883.982-.523 2.095-1.117 4.219-1.117 2.125 0 3.239.594 4.222 1.117.887.474 1.654.883 3.28.883s2.393-.409 3.28-.883c.814-.434 1.727-.91 3.222-1.063z"/><path d="m28.415 44.999c.029 0 .053.001.084.001.624 0 .682-.031 1.395-.411 1.113-.595 2.976-1.589 6.102-1.589 1.343 0 2.44.188 3.357.444.42-.743.647-1.574.647-2.444 0-2.024-1.193-3.79-3.011-4.575z"/><path d="m52 46.808v6.192h-1c-.626 0-.684.031-1.397.411-1.114.595-2.977 1.589-6.105 1.589s-4.991-.994-6.104-1.589c-.714-.38-.772-.411-1.398-.411-.623 0-.681.031-1.392.41-1.115.596-2.978 1.59-6.105 1.59-3.124 0-4.988-.994-6.103-1.588-.713-.381-.771-.412-1.396-.412h-.586l-3.097 3.097c4.458.592 9.489.903 14.683.903 17.968 0 29-3.494 29-6 0-.816-1.925-2.688-9-4.192z"/><path d="m7 25c.191 0 .396-.025.611-.061.505-.596 1.031-1.179 1.59-1.738s1.141-1.084 1.737-1.588c.037-.215.062-.421.062-.613 0-2.206-1.794-4-4-4s-4 1.794-4 4 1.794 4 4 4z"/><path d="m39.276 49.883c-.887-.474-1.654-.883-3.28-.883-1.624 0-2.39.409-3.277.882-.983.524-2.095 1.118-4.22 1.118-2.124 0-3.237-.594-4.22-1.117-.166-.089-.328-.174-.492-.256l-1.527 1.527c.338.104.65.265 1.077.492 1.071.572 2.538 1.354 5.162 1.354 2.627 0 4.092-.782 5.161-1.353.864-.46 1.256-.647 2.336-.647 1.082 0 1.476.187 2.338.646 1.071.572 2.536 1.354 5.164 1.354s4.093-.782 5.162-1.353c.535-.286.891-.466 1.34-.562v-2.022c-.984.131-1.598.455-2.28.819-.983.524-2.097 1.118-4.222 1.118s-3.239-.594-4.222-1.117z"/><path d="m15.552 57.862-1.868 1.868c4.907.832 11.182 1.27 18.316 1.27 17.968 0 29-3.494 29-6v-.97c-4.684 3.273-16.898 4.97-29 4.97-5.872 0-11.541-.395-16.448-1.138z"/><path d="m28.951 17.046c-.029 0-.06 0-.089 0-6.888 0-13.363 2.686-18.247 7.569-9.851 9.851-10.041 25.775-.602 35.957l36.559-36.559c-4.824-4.478-11.043-6.945-17.621-6.967zm-21.952 25.834-1.556.094-.443-.022c-.001-.718.028-1.379.086-2.037l1.992.174c-.053.6-.079 1.203-.079 1.791zm.332-3.682-1.969-.355c.124-.686.278-1.37.46-2.035l1.93.525c-.166.609-.308 1.237-.421 1.865zm1-3.691-1.879-.684c.237-.653.505-1.301.793-1.926l1.816.839c-.265.575-.511 1.17-.73 1.771zm3.648 20.271-1.414-1.414 1.414-1.414 1.414 1.414zm2.83-2.829-1.414-1.414 1.414-1.414 1.414 1.414zm2.828-2.828-1.414-1.414 1.414-1.414 1.414 1.414zm19.965-27.271c-2.759-1.197-5.698-1.804-8.737-1.804-2.243 0-4.452.337-6.563 1.002l-.602-1.907c2.307-.727 4.718-1.095 7.165-1.095 3.314 0 6.521.663 9.534 1.969zm1.913.943.971-1.748c.621.345 1.237.724 1.832 1.127l-1.123 1.655c-.547-.37-1.111-.718-1.68-1.034z"/><path d="m57.225 24.895c-2.918 2.363-6.225 5.042-6.225 16.105h2c0-10.11 2.788-12.368 5.483-14.551 2.221-1.799 4.517-3.658 4.517-9.449 0-2.757-2.243-5-5-5s-5 2.243-5 5 2.243 5 5 5h1v-2h-1c-1.654 0-3-1.346-3-3s1.346-3 3-3 3 1.346 3 3c0 4.837-1.666 6.186-3.775 7.895z"/><path d="m48 32h2c0-11.895-2.891-15.613-5.213-18.602-1.558-2.002-2.787-3.585-2.787-7.398 0-1.654 1.346-3 3-3s3 1.346 3 3-1.346 3-3 3h-1v2h1c2.757 0 5-2.243 5-5s-2.243-5-5-5-5 2.243-5 5c0 4.499 1.558 6.504 3.208 8.626 2.246 2.89 4.792 6.166 4.792 17.374z"/></svg>