<svg id="Capa_1" enable-background="new 0 0 512 512" height="512" viewBox="0 0 512 512" width="512" xmlns="http://www.w3.org/2000/svg"><g><g><g><path d="m166.982 42h-80.982c-8.284 0-15 6.716-15 15v15h106.535c-5.818-9.789-9.344-19.804-10.553-30z"/><path d="m441 57c0-8.284-6.716-15-15-15h-80.982c-1.209 10.196-4.735 20.211-10.553 30h106.535z"/><path d="m361 432h30v80h-30z"/><path d="m241 432h30v80h-30z"/><path d="m121 432h30v80h-30z"/></g><path d="m281.5 0c-10.214 0-19.268 4.597-25.5 11.726-6.232-7.129-15.286-11.726-25.5-11.726-18.778 0-34 15.222-34 34 0 37.555 59.5 68 59.5 68s59.5-30.445 59.5-68c0-18.778-15.222-34-34-34z"/></g><path d="m496.576 482h-15.576v-365c0-8.284-6.716-15-15-15h-157.375c-1.224 1.07-2.468 2.137-3.752 3.199-16.918 13.996-33.385 22.575-35.208 23.508l-6.832 3.496c-4.291 2.195-9.375 2.195-13.665 0l-6.832-3.496c-1.822-.933-18.289-9.512-35.208-23.508-1.284-1.062-2.528-2.13-3.752-3.199h-157.376c-8.284 0-15 6.716-15 15v365h-15.576c-8.077 0-15.027 6.207-15.407 14.275-.406 8.614 6.458 15.725 14.983 15.725h76v-95c0-8.284 6.716-15 15-15h60c8.284 0 15 6.716 15 15v95h30v-95c0-8.284 6.716-15 15-15h60c8.284 0 15 6.716 15 15v95h30v-95c0-8.284 6.716-15 15-15h60c8.284 0 15 6.716 15 15v95h76c8.525 0 15.389-7.111 14.983-15.725-.38-8.068-7.33-14.275-15.407-14.275zm-360.576-110h-30c-8.284 0-15-6.716-15-15s6.716-15 15-15h30c8.284 0 15 6.716 15 15s-6.716 15-15 15zm0-60h-30c-8.284 0-15-6.716-15-15s6.716-15 15-15h30c8.284 0 15 6.716 15 15s-6.716 15-15 15zm0-60h-30c-8.284 0-15-6.716-15-15s6.716-15 15-15h30c8.284 0 15 6.716 15 15s-6.716 15-15 15zm0-60h-30c-8.284 0-15-6.716-15-15s6.716-15 15-15h30c8.284 0 15 6.716 15 15s-6.716 15-15 15zm90 180h-30c-8.284 0-15-6.716-15-15s6.716-15 15-15h30c8.284 0 15 6.716 15 15s-6.716 15-15 15zm0-60h-30c-8.284 0-15-6.716-15-15s6.716-15 15-15h30c8.284 0 15 6.716 15 15s-6.716 15-15 15zm0-60h-30c-8.284 0-15-6.716-15-15s6.716-15 15-15h30c8.284 0 15 6.716 15 15s-6.716 15-15 15zm0-60h-30c-8.284 0-15-6.716-15-15s6.716-15 15-15h30c8.284 0 15 6.716 15 15s-6.716 15-15 15zm90 180h-30c-8.284 0-15-6.716-15-15s6.716-15 15-15h30c8.284 0 15 6.716 15 15s-6.716 15-15 15zm0-60h-30c-8.284 0-15-6.716-15-15s6.716-15 15-15h30c8.284 0 15 6.716 15 15s-6.716 15-15 15zm0-60h-30c-8.284 0-15-6.716-15-15s6.716-15 15-15h30c8.284 0 15 6.716 15 15s-6.716 15-15 15zm0-60h-30c-8.284 0-15-6.716-15-15s6.716-15 15-15h30c8.284 0 15 6.716 15 15s-6.716 15-15 15zm90 180h-30c-8.284 0-15-6.716-15-15s6.716-15 15-15h30c8.284 0 15 6.716 15 15s-6.716 15-15 15zm0-60h-30c-8.284 0-15-6.716-15-15s6.716-15 15-15h30c8.284 0 15 6.716 15 15s-6.716 15-15 15zm0-60h-30c-8.284 0-15-6.716-15-15s6.716-15 15-15h30c8.284 0 15 6.716 15 15s-6.716 15-15 15zm0-60h-30c-8.284 0-15-6.716-15-15s6.716-15 15-15h30c8.284 0 15 6.716 15 15s-6.716 15-15 15z"/></g></svg>